<svg width="74" height="79" viewBox="0 0 74 79" fill="none" xmlns="http://www.w3.org/2000/svg">
<path d="M49.6407 22.3041C50.5763 20.4567 53.1824 13.3261 53.9641 10.761C54.6882 8.38617 56.1847 1.41087 57.0016 0.861167C58.1477 0.0904979 60.6257 4.77549 57.2117 12.9418C55.6402 16.7014 53.145 19.9087 50.6172 23.0816L49.6407 22.3041Z" fill="#936543"/>
<path d="M50.6165 22.1921C51.861 20.6403 55.7261 14.4205 56.9708 12.1471C58.1235 10.0425 60.9057 3.72214 61.794 3.3783C63.0608 2.88765 64.397 7.95342 59.5695 14.9782C57.3469 18.2125 54.3719 20.7061 51.3731 23.1597L50.6165 22.1921Z" fill="#845B3C"/>
<path d="M51.5291 22.2519C52.9941 21.028 57.8189 15.878 59.426 13.9591C60.9142 12.1826 64.735 6.70437 65.6454 6.56182C66.9678 6.35476 67.1679 11.538 61.2877 17.2537C58.5807 19.8853 55.319 21.6394 52.0432 23.3493L51.5291 22.2519Z" fill="#936543"/>
<path d="M52.4422 22.5482C54.0429 21.6624 59.5339 17.6602 61.4027 16.1298C63.133 14.7133 67.7389 10.191 68.6294 10.2357C69.9485 10.302 69.0709 15.3713 62.4887 19.7052C59.4584 21.7008 56.0841 22.7317 52.7053 23.7171L52.4422 22.5482Z" fill="#845B3C"/>
<path d="M53.3489 23.1007C55.0109 22.5488 60.9025 19.7184 62.9409 18.5916C64.8282 17.5484 69.9825 14.0434 70.8184 14.2563C72.0841 14.5792 70.2159 19.3374 63.245 22.2794C60.0355 23.6341 56.6965 23.9843 53.3627 24.2889L53.3489 23.1007Z" fill="#936543"/>
<path d="M54.2778 23.8855C55.9366 23.6556 61.994 21.9897 64.1196 21.2696C66.0875 20.603 71.5767 18.1456 72.3302 18.5062C73.4975 19.0647 70.7392 23.3408 63.6546 24.9158C60.3928 25.6412 57.2146 25.3645 54.0497 25.0446L54.2778 23.8855Z" fill="#845B3C"/>
<path d="M55.2059 24.4145C56.8039 24.4905 62.8139 23.9646 64.9516 23.6485C66.931 23.3559 72.5581 21.9587 73.2055 22.4448C74.2329 23.2164 70.6944 26.8546 63.7443 27.1069C60.5443 27.2232 57.6349 26.3811 54.7469 25.4996L55.2059 24.4145Z" fill="#936543"/>
<path d="M56.0276 24.841C57.5108 25.2025 63.2717 25.7782 65.3495 25.858C67.2737 25.9322 72.8488 25.5947 73.3692 26.183C74.2163 27.141 70.0224 29.9929 63.4403 28.9836C60.4098 28.5188 57.8668 27.18 55.3533 25.8072L56.0276 24.841Z" fill="#845B3C"/>
<path d="M56.5986 26.6059C57.9154 27.2269 63.2267 28.8443 65.1729 29.3053C66.9749 29.7323 72.3056 30.4355 72.6802 31.1001C73.3069 32.2114 68.6079 34.1356 62.6231 31.9501C59.8675 30.9439 57.7813 29.1896 55.7308 27.4079L56.5986 26.6059Z" fill="#936543"/>
<path d="M56.9984 28.3537C58.0992 29.1987 62.762 31.7642 64.5035 32.5791C66.1163 33.334 71.0034 35.0277 71.2177 35.7387C71.586 36.9602 66.5681 37.8318 61.4054 34.5963C59.0282 33.1065 57.4782 31.0364 55.9686 28.947L56.9984 28.3537Z" fill="#845B3C"/>
<path d="M57.1861 30.0163C58.0272 31.0366 61.8549 34.4067 63.3218 35.531C64.6803 36.5721 68.9276 39.1586 68.9729 39.8817C69.0531 41.1579 63.9431 40.8894 59.8078 36.7869C57.9036 34.8982 56.9489 32.6346 56.038 30.3613L57.1861 30.0163Z" fill="#936543"/>
<path d="M57.0702 31.6839C57.6214 32.8177 60.4647 36.7924 61.5986 38.1602C62.6486 39.4268 66.0842 42.7495 65.9613 43.4472C65.7389 44.7126 60.7916 43.2803 57.8414 38.5569C56.4828 36.3822 56.1488 34.0671 55.8601 31.753L57.0702 31.6839Z" fill="#845B3C"/>
<path d="M56.5603 33.4893C56.8113 34.6656 58.5881 39.0004 59.3526 40.5279C60.0603 41.9424 62.5657 45.7913 62.2875 46.4282C61.7698 47.6138 57.2396 45.0772 55.5504 40.0253C54.7723 37.6992 55.0393 35.4805 55.3507 33.2729L56.5603 33.4893Z" fill="#936543"/>
<path d="M55.9007 35.4756C55.8648 36.6245 56.5773 41.062 56.9657 42.6587C57.3253 44.1376 58.8592 48.2754 58.4485 48.8227C57.6651 49.8673 53.7648 46.3645 53.3131 41.2841C53.1048 38.9447 53.908 36.9548 54.7524 34.9858L55.9007 35.4756Z" fill="#845B3C"/>
<path d="M58.7969 4.81993C58.8013 3.50657 58.4942 2.18107 57.7782 1.06922C57.5656 0.739524 57.007 0.991395 57.217 1.33954C57.8663 2.41696 58.0908 3.66422 58.1194 4.90878C58.1473 6.12492 58.1051 7.41063 57.7896 8.58941C57.7686 8.66788 57.8787 8.71026 57.9094 8.6329C58.4006 7.39237 58.7925 6.16653 58.7969 4.81993Z" fill="#E9DACB"/>
<path d="M62.8091 5.72501C62.7816 5.17279 62.656 4.43005 62.1467 4.1118C61.9783 4.00656 61.7965 4.17297 61.8652 4.35145C62.0623 4.86279 62.2043 5.31713 62.2088 5.87599C62.2144 6.59566 62.0638 7.31574 61.8751 8.00662C61.5224 9.29811 61.0532 10.5985 60.4179 11.7798C60.3546 11.8973 60.493 12.0591 60.6049 11.9495C61.6412 10.9361 62.219 9.37817 62.5504 7.99957C62.729 7.25641 62.8473 6.49078 62.8091 5.72501Z" fill="#E9DACB"/>
<path d="M65.5347 7.23435C65.3085 6.95639 64.9015 7.3103 65.1145 7.59225C65.6109 8.24889 65.2396 9.23123 64.9664 9.90316C64.6795 10.6087 64.3819 11.3127 64.0694 12.0066C64.0014 12.1574 64.213 12.2339 64.3061 12.1296C64.9264 11.4331 65.4068 10.6656 65.699 9.77273C65.9664 8.95509 66.1184 7.95169 65.5347 7.23435Z" fill="#E9DACB"/>
<path d="M68.2632 11.0545C68.1618 12.0894 67.886 13.0493 67.4553 13.9939C67.0062 14.9786 66.272 15.8298 65.5466 16.6213C65.4481 16.7289 65.5714 16.8766 65.6935 16.7938C67.6246 15.4827 68.6225 13.3868 68.7994 11.0974C68.826 10.7514 68.297 10.7097 68.2632 11.0545Z" fill="#E9DACB"/>
<path d="M70.3696 14.7274C69.9175 16.4957 68.8256 17.9286 67.7501 19.3643C67.6541 19.4925 67.8296 19.6307 67.9475 19.5436C69.4668 18.4214 70.5504 16.7947 71.008 14.9597C71.1129 14.5391 70.4782 14.3029 70.3696 14.7274Z" fill="#E9DACB"/>
<path d="M72.0775 18.6442C72.0811 18.5479 71.9496 18.5187 71.913 18.6085C71.452 19.7397 70.8576 20.6232 69.8728 21.3672C68.9311 22.0784 67.792 22.5642 66.702 23.0008C66.6573 23.0188 66.6818 23.0923 66.7284 23.0808C67.9341 22.7826 69.0553 22.319 70.084 21.6152C71.0621 20.9461 72.0315 19.8885 72.0775 18.6442Z" fill="#E9DACB"/>
<path d="M72.657 22.79C72.337 22.8248 72.157 23.1616 71.9463 23.3803C71.6384 23.6999 71.3089 23.997 70.9625 24.2738C70.2578 24.8361 69.5083 25.297 68.5982 25.4121C68.5431 25.419 68.5476 25.5098 68.6035 25.5102C69.441 25.5154 70.3047 25.2427 71.0002 24.7736C71.4107 24.4969 71.7896 24.1831 72.1533 23.8476C72.4023 23.6179 72.8445 23.3279 72.8499 22.963C72.8515 22.8516 72.7665 22.7782 72.657 22.79Z" fill="#E9DACB"/>
<path d="M72.8303 27.0692C72.4399 27.0793 72.0944 27.3171 71.7507 27.4825C71.3074 27.696 70.8496 27.8848 70.3898 28.0594C69.457 28.4138 68.3268 28.6764 67.3368 28.4464C67.2929 28.436 67.2704 28.4937 67.3127 28.5127C68.2665 28.9446 69.2621 28.8451 70.2493 28.5879C70.7519 28.4569 71.2363 28.2743 71.7099 28.0631C72.1199 27.8804 72.6819 27.6927 72.9403 27.3023C72.9969 27.2168 72.9485 27.0662 72.8303 27.0692Z" fill="#E9DACB"/>
<path d="M70.7452 31.8353C70.0489 31.7285 69.3987 31.9535 68.7215 32.0976C67.9244 32.267 67.0737 32.3926 66.266 32.2448C66.2329 32.2387 66.2266 32.2873 66.2541 32.2996C66.9764 32.6199 67.6943 32.6884 68.4731 32.6049C69.2558 32.5209 70.0687 32.4045 70.7929 32.0904C70.9237 32.0335 70.8694 31.8544 70.7452 31.8353Z" fill="#E9DACB"/>
<path d="M69.391 35.7446C68.78 35.6992 68.1816 35.8726 67.5707 35.8898C66.9099 35.9085 66.2569 35.9176 65.5983 35.8521C65.5339 35.8457 65.5147 35.9398 65.5744 35.9617C66.7228 36.3836 68.3973 36.8457 69.4955 36.068C69.6308 35.9724 69.5411 35.7558 69.391 35.7446Z" fill="#E9DACB"/>
<path d="M68.156 39.3491C67.535 39.2727 66.8773 39.5355 66.2602 39.5976C65.4398 39.68 64.5593 39.5715 63.9491 38.9728C63.9228 38.947 63.8858 38.9795 63.906 39.0096C64.3609 39.6838 65.1057 40.0077 65.8977 40.0829C66.6249 40.1519 67.6593 40.1327 68.2526 39.6477C68.3718 39.5501 68.2981 39.3666 68.156 39.3491Z" fill="#E9DACB"/>
<path d="M64.5686 42.597C64.1821 42.2468 63.571 42.1437 63.0817 41.9978C62.4626 41.8133 61.8554 41.5536 61.3078 41.2101C61.2749 41.1894 61.2323 41.2314 61.2606 41.262C61.6712 41.7031 62.1267 42.0092 62.667 42.2719C63.1946 42.5284 63.8729 42.877 64.4672 42.8799C64.6312 42.8807 64.6826 42.7004 64.5686 42.597Z" fill="#E9DACB"/>
<path d="M61.5834 46.0663C61.4284 45.8558 61.1809 45.7815 60.9632 45.6425C60.6498 45.4422 60.3707 45.1869 60.1027 44.9309C59.6679 44.5158 59.2206 44.1053 58.7553 43.724C58.6987 43.6777 58.6228 43.7644 58.6704 43.8177C59.1314 44.3328 59.5278 44.9022 60.0136 45.3948C60.3743 45.7602 60.9401 46.378 61.49 46.3316C61.622 46.3206 61.6485 46.1546 61.5834 46.0663Z" fill="#E9DACB"/>
<path d="M45.2957 27.4055C47.0932 26.4374 50.0566 17.1181 52.7478 19.3458C55.5316 21.6502 56.9675 25.6569 57.181 28.584C57.5441 33.5595 55.0516 38.4905 52.1522 41.9494L45.2957 27.4055Z" fill="#C3955F"/>
<path d="M50.2017 20.0005C50.7226 19.2945 51.5939 18.0771 52.6231 18.2075C54.1277 18.398 53.2181 20.455 52.8958 21.2499L50.2017 20.0005Z" fill="#C3955F"/>
<path d="M52.584 20.8422C53.0309 20.4526 54.0927 19.7291 54.723 20.0858C55.9016 20.7528 54.4899 22.8138 54.0973 23.4515L52.584 20.8422Z" fill="#C3955F"/>
<path d="M54.2603 22.8522C54.7264 22.6233 56.0019 22.2315 56.4562 22.6198C57.3989 23.4253 55.815 25.3651 55.3155 25.9224L54.2603 22.8522Z" fill="#C3955F"/>
<path d="M55.5298 25.102C56.0278 24.8959 57.1301 24.4515 57.6711 24.7707C59.0201 25.5665 56.9106 27.2074 56.3965 27.6595L55.5298 25.102Z" fill="#C3955F"/>
<path d="M56.0615 27.4039C56.6571 27.203 57.4786 27.2944 57.9917 27.6872C59.1758 28.5938 56.6521 29.9162 56.0169 30.3477L56.0615 27.4039Z" fill="#C3955F"/>
<path d="M56.503 29.7304C57.0384 29.6447 57.8495 29.7848 58.0248 30.3651C58.3519 31.4485 56.4843 32.0148 55.7693 32.1976L56.503 29.7304Z" fill="#C3955F"/>
<path d="M56.3642 31.9392C56.9428 32.1733 57.6336 32.5655 57.7513 33.2379C58.0102 34.7141 55.7382 34.744 54.7859 34.913L56.3642 31.9392Z" fill="#C3955F"/>
<path d="M56.1506 34.6015C56.6216 35.0899 57.1631 35.7966 56.874 36.5493C56.4411 37.676 54.999 36.7265 54.2682 36.594L56.1506 34.6015Z" fill="#C3955F"/>
<path d="M55.1111 36.5851C55.485 36.9101 56.0012 37.8884 55.5459 38.3461C54.9822 38.9124 53.863 37.976 53.5013 37.5661L55.1111 36.5851Z" fill="#C3955F"/>
<path d="M53.8725 37.7106C54.068 38.2662 54.3027 39.4544 54.0355 40.0163C53.5234 41.0928 52.5588 39.7674 52.2581 39.2271L53.8725 37.7106Z" fill="#C3955F"/>
<path d="M53.2627 18.1556C52.0142 17.2333 50.9526 19.0521 50.3835 19.8894C50.3703 19.9089 50.3973 19.9353 50.4148 19.9178C50.9264 19.4014 52.0286 18.001 52.874 18.5793C53.1353 18.758 53.0861 19.2896 53.0606 19.5532C53.0242 19.9306 52.9916 20.3244 52.9033 20.694C52.8828 20.78 52.982 20.8351 53.0404 20.7651C53.565 20.1379 54.1019 18.7755 53.2627 18.1556Z" fill="#E9DACB"/>
<path d="M55.4134 20.3434C54.9107 19.0747 53.3131 19.808 52.6825 20.5859C52.5437 20.7573 52.7684 21.0112 52.9577 20.9091C53.3704 20.6865 53.7275 20.3919 54.1854 20.2549C54.767 20.0806 54.9517 20.5736 54.8953 21.069C54.7961 21.9401 53.9972 22.6357 54.0693 23.5254C54.0778 23.6293 54.2287 23.677 54.3002 23.6065C54.7247 23.1878 54.976 22.6465 55.2092 22.1008C55.4334 21.5756 55.6353 20.9029 55.4134 20.3434Z" fill="#E9DACB"/>
<path d="M56.7689 22.951C56.7058 22.4085 56.1108 22.2293 55.6503 22.2794C55.0876 22.3406 54.4379 22.7312 54.1455 23.2138C54.0851 23.3136 54.1989 23.4094 54.2909 23.3459C54.6595 23.0915 55.0657 22.8509 55.501 22.7369C56.0393 22.5956 56.4512 22.859 56.2456 23.4131C56.0982 23.8105 55.819 24.198 55.5732 24.5403C55.3777 24.8124 55.2543 25.0722 55.1147 25.3727C55.0585 25.4936 55.2014 25.5722 55.2994 25.5398C56.2291 25.2319 56.878 23.8903 56.7689 22.951Z" fill="#E9DACB"/>
<path d="M58.1851 25.1521C58.0362 23.7764 56.0155 24.7532 55.388 25.1243C55.3423 25.1513 55.3609 25.2317 55.4189 25.2175C55.8397 25.1145 56.2523 24.9786 56.6766 24.891C56.9283 24.8389 57.2012 24.8044 57.4537 24.8691C57.7518 24.9457 57.6299 25.2045 57.5264 25.3945C57.1113 26.1571 56.2786 26.6698 55.7716 27.375C55.7249 27.4398 55.7867 27.5141 55.8572 27.5069C56.4313 27.4483 56.8893 27.0818 57.3093 26.7101C57.7034 26.3611 58.2467 25.7205 58.1851 25.1521Z" fill="#E9DACB"/>
<path d="M57.65 27.1236C57.0464 26.99 56.332 27.1086 55.8037 27.4262C55.676 27.5031 55.7384 27.6762 55.8829 27.6659C56.1368 27.6482 58.2891 27.6175 57.7377 28.2067C57.4766 28.4856 57.1021 28.7028 56.7749 28.8942C56.5037 29.053 56.1788 29.2054 56.1355 29.5534C56.1229 29.6548 56.1917 29.7279 56.2745 29.7699C56.6926 29.9815 57.2818 29.5554 57.6268 29.3501C58.0738 29.0839 58.4831 28.6999 58.5643 28.1636C58.6471 27.6158 58.1178 27.2272 57.65 27.1236Z" fill="#E9DACB"/>
<path d="M56.1007 29.5279C55.8463 29.6136 55.9447 30.0205 56.1944 30.0301C56.5403 30.0435 57.9006 30.0396 57.4606 30.6611C57.2606 30.9436 56.8966 31.1032 56.6307 31.3132C56.3991 31.4961 56.1932 31.7002 55.9804 31.9047C55.8959 31.9857 55.9617 32.1143 56.0751 32.1022C56.947 32.0081 58.0952 31.6263 58.2963 30.6277C58.5354 29.4392 56.891 29.2621 56.1007 29.5279Z" fill="#E9DACB"/>
<path d="M55.9348 31.8954C55.8705 31.9229 55.8562 32.0301 55.9211 32.066C56.3741 32.3172 57.7507 32.6961 57.505 33.4252C57.3936 33.7563 56.9187 33.9035 56.6208 33.9723C56.2077 34.0678 55.8724 33.96 55.4715 33.9772C55.1647 33.9905 54.9281 34.3188 55.1587 34.589C55.5413 35.0376 56.385 34.9507 56.8869 34.7913C57.4544 34.6109 57.9948 34.2604 58.2073 33.6807C58.628 32.5323 56.8833 31.4922 55.9348 31.8954Z" fill="#E9DACB"/>
<path d="M57.0874 35.1043C56.7787 34.6652 56.166 34.1153 55.5885 34.3327C55.4718 34.3767 55.4608 34.5622 55.565 34.6251C55.9731 34.8715 56.3226 34.9955 56.5705 35.4408C56.7403 35.7463 56.7578 36.4295 56.3165 36.5365C55.7322 36.6782 55.1106 35.8337 54.5129 36.2027C54.375 36.2877 54.3172 36.46 54.4299 36.595C54.7173 36.9389 55.3421 37.1378 55.7576 37.2662C56.2913 37.4312 56.7742 37.3276 57.1384 36.8978C57.562 36.3978 57.4347 35.5983 57.0874 35.1043Z" fill="#E9DACB"/>
<path d="M55.9077 37.4161C55.6097 36.921 55.1503 36.652 54.6663 36.3732C54.5972 36.3334 54.5215 36.4114 54.5721 36.4772C54.7802 36.748 54.983 37.0179 55.2029 37.2787C55.4477 37.5688 55.7366 38.0088 55.2876 38.2498C55.0191 38.3938 54.673 37.9479 54.4904 37.8289C54.2308 37.6597 54.0494 37.5208 53.7378 37.4813C53.6549 37.4709 53.5998 37.5382 53.5855 37.6111C53.3891 38.6125 54.9939 39.3066 55.7318 38.7891C56.1754 38.478 56.1539 37.8255 55.9077 37.4161Z" fill="#E9DACB"/>
<path d="M54.471 39.367C54.3853 38.702 54.0562 38.2618 53.6597 37.75C53.6401 37.7247 53.5968 37.7525 53.6127 37.7806C53.7919 38.0973 53.7891 38.4444 53.8315 38.7997C53.8699 39.1203 54.0452 39.6424 53.8411 39.9363C53.5187 40.4004 53.21 39.6657 53.0255 39.4998C52.9605 39.4413 52.845 39.4588 52.7839 39.5114C52.3891 39.8506 52.5831 40.4391 52.939 40.7216C53.2753 40.9886 53.8172 40.9534 54.1312 40.6767C54.4981 40.3531 54.5287 39.8161 54.471 39.367Z" fill="#E9DACB"/>
<path d="M49.7397 23.7214C49.2325 22.7508 47.9897 23.7537 47.566 24.246C47.5386 24.2778 47.5835 24.3304 47.6192 24.3085C47.8944 24.1404 48.1728 23.9679 48.4626 23.8269C48.8743 23.6266 49.3211 23.7752 49.2051 24.2853C49.1292 24.6188 48.8883 24.889 48.7972 25.2064C48.7266 25.4529 48.6483 25.705 48.6107 25.9589C48.5945 26.0679 48.7352 26.1745 48.8334 26.1116C49.5544 25.6502 50.1836 24.571 49.7397 23.7214Z" fill="#E9DACB"/>
<path d="M51.6774 25.4219C51.6065 24.949 51.0742 24.6816 50.6378 24.7416C50.0841 24.8178 49.6638 25.151 49.2224 25.467C49.2167 25.471 49.2215 25.4814 49.2282 25.4793C49.7123 25.3354 51.1865 24.7708 51.1052 25.7164C51.0459 26.4075 50.3048 26.7314 50.12 27.3417C50.0905 27.4391 50.1494 27.5251 50.2477 27.5406C50.7066 27.613 50.9955 27.1838 51.2334 26.8539C51.5294 26.4438 51.7538 25.9348 51.6774 25.4219Z" fill="#E9DACB"/>
<path d="M52.9765 27.4341C52.8844 26.2163 51.1385 26.7015 50.4982 27.09C50.4018 27.1485 50.4393 27.3209 50.5641 27.2898C50.8687 27.2144 52.5128 26.997 52.3181 27.5938C52.1055 28.2457 51.1911 28.3858 51.0236 29.0123C50.9959 29.116 51.0366 29.2027 51.1336 29.2481C51.5675 29.4509 51.98 29.0382 52.2801 28.7511C52.6291 28.4172 53.0153 27.9487 52.9765 27.4341Z" fill="#E9DACB"/>
<path d="M53.0639 28.7422C52.4905 28.5792 51.9474 28.7399 51.426 28.9757C51.3368 29.016 51.3733 29.1362 51.4584 29.1502C51.8043 29.2071 52.1461 29.2655 52.4936 29.3085C52.816 29.3485 53.2491 29.5325 53.0416 29.9205C52.7248 30.513 51.9623 30.7242 51.6437 31.287C51.5944 31.3742 51.6139 31.4988 51.7217 31.5332C52.1803 31.6791 52.6182 31.3812 52.9968 31.1263C53.4268 30.8366 53.7743 30.3596 53.8558 29.8448C53.937 29.3316 53.5272 28.8737 53.0639 28.7422Z" fill="#E9DACB"/>
<path d="M53.3577 31.3355C52.9479 31.1112 52.4638 31.0313 52.0115 31.1594C51.9587 31.1744 51.9589 31.2513 52.0167 31.2576C52.4422 31.3036 53.5615 31.7584 53.406 32.3497C53.2833 32.8159 52.3571 32.6062 52.0458 32.7918C51.8498 32.9086 51.8175 33.1616 52.0046 33.3069C52.3462 33.5724 52.8963 33.392 53.2606 33.265C53.6514 33.1286 53.9621 32.8371 54.0219 32.4191C54.0849 31.9781 53.7181 31.533 53.3577 31.3355Z" fill="#E9DACB"/>
<path d="M53.7073 34.2432C53.5325 33.5381 52.8649 32.9463 52.1268 33.0375C52.075 33.0439 52.0692 33.1115 52.1051 33.1395C52.4473 33.4067 52.7933 33.7729 52.9924 34.1604C53.2564 34.674 52.9343 34.8443 52.4733 34.9447C52.1032 35.0254 52.1035 35.6552 52.511 35.6374C53.2838 35.6035 53.9081 35.0537 53.7073 34.2432Z" fill="#E9DACB"/>
<path d="M52.9059 36.1789C52.7818 35.751 52.5427 35.2052 52.177 34.9257C52.0501 34.8289 51.8747 35.0188 51.9882 35.1336C52.3069 35.4557 52.4794 36.1081 52.4662 36.5476C52.4595 36.772 52.3372 36.7785 52.2395 36.9554C52.1574 37.1038 52.3676 37.2069 52.48 37.2216C53.0339 37.2942 52.9982 36.4969 52.9059 36.1789Z" fill="#E9DACB"/>
<path d="M48.3568 24.0164C48.0571 24.2586 47.6639 24.6634 47.6092 25.0761C47.5604 25.2571 47.5171 25.4616 47.6999 25.5893C47.7569 25.6291 47.8434 25.6578 47.9106 25.6632C47.9965 25.67 48.0756 25.6487 48.147 25.6027C48.148 25.6021 48.1485 25.6017 48.1493 25.6012C48.1368 25.6144 48.1584 25.6106 48.2756 25.5539C48.6373 25.3793 48.8544 24.9819 49.0743 24.6679C49.3982 24.2054 48.7856 23.6699 48.3568 24.0164Z" fill="#936543"/>
<path d="M50.6956 25.2464C50.2292 25.0554 49.7751 25.4649 49.4385 25.7397C49.1131 26.0056 48.7136 26.4069 48.7833 26.858C48.7986 26.9573 48.8809 27.0574 48.9781 27.0867C49.3973 27.2135 49.7852 26.9072 50.0699 26.6225C50.3459 26.3464 50.7898 26.123 50.9284 25.7455C51.0036 25.5403 50.8913 25.3266 50.6956 25.2464Z" fill="#936543"/>
<path d="M51.6744 27.2091C51.278 27.2691 49.8688 27.728 50.1624 28.3359C50.3172 28.6563 50.7212 28.5657 50.9892 28.4781C51.358 28.3576 51.726 28.1987 52.0377 27.9665C52.4049 27.693 52.0793 27.1478 51.6744 27.2091Z" fill="#936543"/>
<path d="M52.9804 29.3663C52.6327 29.2205 52.2399 29.316 51.8844 29.382C51.5145 29.4506 51.1383 29.4867 50.8277 29.717C50.5141 29.9494 50.6589 30.4213 50.9783 30.5541C51.3023 30.6891 51.6667 30.608 52.0011 30.5612C52.394 30.5062 52.814 30.477 53.1336 30.2171C53.4382 29.9694 53.3165 29.5072 52.9804 29.3663Z" fill="#936543"/>
<path d="M53.1385 31.9786C52.8818 31.7179 52.5605 31.7083 52.2108 31.7024C51.8801 31.6969 51.4848 31.6302 51.2647 31.9269C51.2082 32.0032 51.1975 32.1204 51.2424 32.2045C51.4045 32.5088 51.7207 32.5037 52.0286 32.543C52.3634 32.5858 52.6973 32.6938 53.0183 32.5484C53.2234 32.4552 53.3041 32.1466 53.1385 31.9786Z" fill="#936543"/>
<path d="M52.9969 34.2779C52.8576 34.0034 52.5547 33.8321 52.2838 33.7012C52.0299 33.5787 51.7798 33.5582 51.5083 33.6237C51.3894 33.6524 51.3159 33.7792 51.3719 33.8944C51.4809 34.1185 51.6002 34.302 51.7967 34.462C52.0283 34.6503 52.2694 34.8562 52.5719 34.8978C52.898 34.9426 53.14 34.5603 52.9969 34.2779Z" fill="#936543"/>
<path d="M53.5799 39.1309C53.425 38.796 53.2215 38.5349 52.9681 38.2684C52.8101 38.1023 52.5839 38.2746 52.6505 38.4753C52.7463 38.7633 52.8172 39.0513 52.9281 39.3346C53.0289 39.5924 53.1028 39.9203 53.4057 40.0087C53.4944 40.0345 53.5797 40.0107 53.6361 39.9358C53.8245 39.6857 53.6956 39.3812 53.5799 39.1309Z" fill="#936543"/>
<path d="M55.1928 37.3148C55.0317 37.0902 54.7792 36.939 54.5596 36.7738C54.4325 36.6784 54.3122 36.5872 54.1453 36.5801C53.9156 36.5704 53.7256 36.7181 53.693 36.9481C53.6501 37.2502 53.9275 37.4171 54.1229 37.5888C54.3094 37.7526 54.4759 37.9258 54.7219 37.9927C55.1433 38.1072 55.4474 37.6697 55.1928 37.3148Z" fill="#936543"/>
<path d="M56.4388 35.9863C56.3572 35.6163 56.0397 35.3685 55.7187 35.1954C55.3574 35.0005 55.0063 34.7964 54.6235 35.0555C54.5085 35.1332 54.4869 35.2866 54.4981 35.4114C54.5289 35.7525 54.8551 35.9019 55.0963 36.0879C55.3445 36.2791 55.6355 36.5187 55.9628 36.5169C56.2435 36.5155 56.5056 36.2905 56.4388 35.9863Z" fill="#936543"/>
<path d="M57.1002 32.9162C56.9056 32.6677 56.6452 32.6035 56.3406 32.5968C56.0364 32.5902 55.7034 32.6112 55.4209 32.7235C55.143 32.834 55.0917 33.2984 55.3627 33.4485C55.813 33.6977 56.6534 33.8472 57.0572 33.4519C57.2099 33.3024 57.2346 33.0879 57.1002 32.9162Z" fill="#936543"/>
<path d="M55.1852 30.5632C55.1133 30.695 55.0943 30.8569 55.2053 30.9777C55.5172 31.3167 56.0264 31.1708 56.4362 31.1339C56.7728 31.1038 57.4262 31.0771 57.4635 30.6116C57.5341 29.731 55.449 30.0792 55.1852 30.5632Z" fill="#936543"/>
<path d="M57.5453 28.1444C57.4129 27.4504 55.9951 27.7792 55.6164 28.0254C55.4501 28.1333 55.3383 28.2882 55.3783 28.498C55.4117 28.6725 55.58 28.8542 55.7701 28.8491C56.1084 28.8403 56.5071 28.7739 56.8351 28.6892C57.0717 28.6281 57.6146 28.5075 57.5453 28.1444Z" fill="#936543"/>
<path d="M57.0906 25.2555C56.789 25.0994 56.4266 25.2371 56.1276 25.3363C55.8176 25.4391 55.5158 25.6221 55.2905 25.8565C54.9557 26.2047 55.2913 26.8382 55.7738 26.5985C56.0316 26.4704 56.2931 26.343 56.5577 26.2288C56.8369 26.1081 57.1591 25.9194 57.2599 25.6183C57.3136 25.4574 57.2304 25.3278 57.0906 25.2555Z" fill="#936543"/>
<path d="M55.6397 23.1829C55.5074 23.1457 55.4002 23.1449 55.2692 23.1615C55.0024 23.162 54.7813 23.299 54.5462 23.4543C54.3264 23.5995 54.0475 23.8544 53.9804 24.1172C53.8826 24.4991 54.2001 24.7647 54.5623 24.6438C54.6748 24.6063 54.7526 24.5265 54.8501 24.4638C54.9912 24.3729 55.1275 24.2788 55.2637 24.181C55.4996 24.0116 55.7178 23.7882 55.7877 23.5003C55.8176 23.3772 55.7797 23.2224 55.6397 23.1829Z" fill="#936543"/>
<path d="M54.3085 20.6628C53.9788 20.6617 53.7332 20.849 53.517 21.08C53.2773 21.3358 53.057 21.5845 53.0448 21.9517C53.035 22.2491 53.3068 22.4077 53.5713 22.3126C53.8271 22.2207 53.9889 22.042 54.1737 21.8514C54.3873 21.631 54.6406 21.3948 54.6519 21.0662C54.6587 20.8744 54.5197 20.6635 54.3085 20.6628Z" fill="#936543"/>
<path d="M52.3731 18.6272C52.243 18.698 52.1294 18.7333 52.0178 18.8392C51.885 18.9655 51.7872 19.1158 51.6842 19.2656C51.5139 19.5129 51.3475 19.7911 51.2887 20.0856C51.2219 20.4205 51.625 20.5988 51.8848 20.4942C52.1268 20.3966 52.3482 20.1638 52.5133 19.9652C52.5989 19.8622 52.6842 19.7589 52.7695 19.6557C52.8927 19.5063 52.9179 19.3349 52.9619 19.1599C53.0462 18.8256 52.7359 18.4297 52.3731 18.6272Z" fill="#936543"/>
<path d="M52.3239 36.574C52.1909 36.3774 52.0389 36.2198 51.8457 36.0831C51.65 35.9446 51.5026 35.8976 51.2666 35.9406C51.1974 35.9532 51.137 36.0407 51.1457 36.1094C51.1682 36.2875 51.2073 36.4 51.3113 36.5489C51.4154 36.6981 51.5122 36.8586 51.605 37.015C51.8021 37.3473 51.8109 37.7455 52.1596 37.969C52.2677 38.0383 52.4308 38.0074 52.5149 37.9148C52.8814 37.511 52.5812 36.9543 52.3239 36.574Z" fill="#936543"/>
<path d="M42.3401 26.5001C42.197 25.528 41.7393 24.6643 41.0598 23.959C40.5851 25.4548 38.4896 27.1412 35.6759 28.1261C32.7722 29.1425 29.9993 29.0989 28.7464 28.141C28.7541 28.2583 28.7649 28.376 28.7822 28.4939C29.2213 31.4785 32.6119 33.4514 36.356 32.9009C40.0999 32.3503 42.7788 29.4846 42.3401 26.5001Z" fill="#E9DACB"/>
<path d="M35.6759 28.1261C38.4896 27.1411 40.5851 25.4548 41.0598 23.959C39.653 22.499 37.2907 21.7218 34.7663 22.0931C31.1701 22.622 28.5583 25.2867 28.7464 28.141C29.9993 29.0989 32.7723 29.1425 35.6759 28.1261Z" fill="#A9734D"/>
<path d="M31.981 32.3547C33.1678 32.7161 33.4156 34.0788 33.0847 34.9675L34.3586 32.5453L31.981 32.3547Z" fill="#E9DACB"/>
<path d="M50.2956 51.6724C51.4664 53.5824 56.465 59.9674 58.3379 62.1106C60.0719 64.0951 65.4615 69.3838 65.5576 70.4021C65.6956 71.8672 60.3827 71.8771 54.8638 64.1434C52.3231 60.5821 50.7105 56.4063 49.1446 52.2178L50.2956 51.6724Z" fill="#845B3C"/>
<path d="M49.8162 52.4393C50.8156 54.3981 55.2512 61.0702 56.9369 63.3319C58.4978 65.4262 63.4464 71.0534 63.4319 72.0795C63.4106 73.5193 58.0721 72.8981 53.2399 64.8776C51.0152 61.1847 49.7853 57.0104 48.6033 52.829L49.8162 52.4393Z" fill="#936543"/>
<path d="M49.345 53.0092C50.1707 55.0059 54.0201 61.9335 55.5078 64.3043C56.886 66.4996 61.3665 72.4488 61.238 73.4706C61.0609 74.8679 55.7757 73.5953 51.6507 65.3287C49.7515 61.5228 48.8966 57.3784 48.09 53.2329L49.345 53.0092Z" fill="#845B3C"/>
<path d="M48.9945 53.3535C49.6313 55.3813 52.8249 62.5514 54.088 65.0288C55.2582 67.3229 59.2007 73.6019 58.9496 74.6041C58.6138 75.9395 53.4798 73.9717 50.1375 65.4796C48.5983 61.5703 48.1348 57.4801 47.7193 53.3955L48.9945 53.3535Z" fill="#936543"/>
<path d="M48.9242 53.4872C49.3352 55.5394 51.7205 62.9494 52.7027 65.5352C53.6128 67.9304 56.8689 74.5675 56.4788 75.5278C55.9715 76.7739 51.1346 74.0317 48.7448 65.3271C47.6438 61.3202 47.6274 57.3138 47.6575 53.3203L48.9242 53.4872Z" fill="#845B3C"/>
<path d="M48.8992 53.6088C49.1213 55.6606 50.81 63.2046 51.5467 65.86C52.2295 68.3195 54.8823 75.2098 54.3738 76.1174C53.7314 77.2638 49.2543 73.8631 47.6757 65.0628C46.948 61.0118 47.2862 57.1245 47.6689 53.2565L48.8992 53.6088Z" fill="#936543"/>
<path d="M53.3989 73.4939C53.2982 72.5428 53.0457 71.6101 52.7609 70.6996C52.2059 68.925 51.3975 67.2425 50.8582 65.4623C50.8479 65.4282 50.7939 65.4367 50.8026 65.4729C51.2347 67.2653 51.887 68.9981 52.3927 70.77C52.6409 71.6402 52.833 72.5261 52.9272 73.4267C52.9781 73.9133 52.9783 74.4019 52.9435 74.8893C52.9339 75.0251 52.9646 75.3643 53.1922 75.3208C53.7093 75.2223 53.4371 73.8549 53.3989 73.4939Z" fill="#E9DACB"/>
<path d="M55.9333 74.5627C55.7313 73.5802 55.2439 72.658 54.8571 71.7375C54.4017 70.6534 53.9775 69.557 53.6336 68.432C53.6284 68.415 53.6013 68.4194 53.6059 68.4372C53.8688 69.4723 54.2001 70.486 54.5586 71.4915C54.9289 72.5302 55.2561 73.6476 55.8134 74.6023C55.8485 74.6624 55.9488 74.637 55.9333 74.5627Z" fill="#E9DACB"/>
<path d="M58.6048 73.445C58.566 73.1694 58.3879 72.9571 58.2336 72.7311C57.9852 72.3671 57.7407 72.0029 57.5128 71.6255C57.1056 70.9515 56.7414 70.2526 56.3846 69.5512C55.6469 68.0998 54.9535 66.6229 54.0768 65.2478C54.0672 65.2327 54.042 65.2441 54.0514 65.2602C54.8686 66.6691 55.5013 68.1721 56.1737 69.6527C56.52 70.4154 56.8793 71.1723 57.2782 71.909C57.5545 72.4192 57.9177 73.307 58.4829 73.5488C58.5509 73.5779 58.614 73.5104 58.6048 73.445Z" fill="#E9DACB"/>
<path d="M60.1992 72.4376C59.9232 71.0596 58.9471 69.8341 58.1379 68.7205C57.2449 67.492 56.2933 66.3024 55.4403 65.0454C55.4087 64.9986 55.3314 65.0501 55.3581 65.0989C56.0434 66.3548 56.8645 67.5111 57.6712 68.6898C58.5189 69.9285 59.1803 71.2901 60.0389 72.5146C60.0934 72.5922 60.2164 72.5234 60.1992 72.4376Z" fill="#E9DACB"/>
<path d="M62.8039 71.8576C62.3807 70.9933 61.7572 70.3274 61.1414 69.6216C60.4806 68.8646 59.8116 68.1161 59.156 67.3541C57.8061 65.7851 56.5042 64.1392 55.551 62.2459C55.5413 62.2264 55.5129 62.2409 55.5221 62.2611C56.3503 64.0904 57.4984 65.708 58.7012 67.2601C59.3578 68.1075 60.037 68.9342 60.7077 69.7682C61.3317 70.544 61.9009 71.3576 62.6372 72.0117C62.7245 72.0892 62.8549 71.9622 62.8039 71.8576Z" fill="#E9DACB"/>
<path d="M64.9599 69.5811C64.2403 68.4467 63.116 67.5873 62.1384 66.6839C61.0826 65.7082 60.0679 64.6751 59.296 63.4548C59.2388 63.3643 59.0873 63.4323 59.1428 63.5285C59.8485 64.748 60.7826 65.7959 61.7682 66.7948C62.7462 67.7858 63.7294 68.8345 64.8244 69.6965C64.8942 69.7513 65.0099 69.6597 64.9599 69.5811Z" fill="#E9DACB"/>
<path d="M44.244 53.6572C43.5401 55.784 40.1296 63.1407 38.795 65.6543C37.559 67.9823 33.518 74.3606 33.657 75.3737C33.8567 76.8322 39.0321 75.63 42.6408 66.8413C44.3027 62.7941 44.9199 58.3614 45.4894 53.9256L44.244 53.6572Z" fill="#845B3C"/>
<path d="M44.5224 54.2402C44.0591 56.3843 41.4821 63.9486 40.4328 66.5591C39.4609 68.9766 36.1222 75.6615 36.3975 76.6492C36.7862 78.0351 41.7909 76.0778 44.4046 67.1115C45.6083 62.9828 45.7257 58.6433 45.7958 54.308L44.5224 54.2402Z" fill="#936543"/>
<path d="M45.1998 54.8527C44.8934 56.9829 42.8728 64.614 42.0164 67.2671C41.2228 69.7241 38.3517 76.5619 38.726 77.5196C39.2419 78.829 44.0557 76.3062 46.0116 67.3144C46.9124 63.1745 46.7162 58.9631 46.473 54.762L45.1998 54.8527Z" fill="#845B3C"/>
<path d="M46.0447 55.2925C45.8599 57.4008 44.283 65.0583 43.5826 67.7377C42.9331 70.2195 40.4352 77.1666 40.8939 78.0908C41.5088 79.321 46.1061 76.3077 47.5427 67.3329C48.2045 63.201 47.7757 59.1234 47.3011 55.0606L46.0447 55.2925Z" fill="#936543"/>
<path d="M46.5565 55.4978C46.5097 57.5839 45.4502 65.275 44.9337 67.9848C44.4544 70.4947 42.4043 77.5758 42.9546 78.4528C43.6711 79.5902 47.9612 76.0549 48.7984 67.0924C49.1844 62.9662 48.502 59.0294 47.7759 55.1131L46.5565 55.4978Z" fill="#845B3C"/>
<path d="M46.1342 55.5021C46.3452 57.5547 46.2668 65.2856 46.1009 68.0358C45.9464 70.5834 44.7893 77.8763 45.476 78.6571C46.3432 79.6439 50.0126 75.3846 49.7203 66.4488C49.5867 62.3352 48.4451 58.6038 47.264 54.9003L46.1342 55.5021Z" fill="#936543"/>
<path d="M49.0475 68.7939C49.2203 65.8299 48.857 62.9221 48.5312 59.9846C48.5305 59.9785 48.5211 59.9803 48.5219 59.9864C48.8598 62.8779 48.9435 65.8642 48.6775 68.7642C48.547 70.1878 48.2975 71.599 47.9189 72.9773C47.7323 73.6556 47.5215 74.3252 47.2768 74.9848C47.0219 75.672 46.6519 76.3195 46.5084 77.0402C46.4697 77.2342 46.7289 77.2692 46.8298 77.1556C47.2844 76.6445 47.5075 75.9771 47.7487 75.3451C48.0203 74.6341 48.2494 73.9027 48.4281 73.1627C48.7745 71.73 48.9619 70.264 49.0475 68.7939Z" fill="#E9DACB"/>
<path d="M43.9108 74.6467C43.4742 75.5803 43.0645 76.7008 43.2429 77.7452C43.256 77.8214 43.3671 77.8293 43.3925 77.7572C43.7387 76.7798 43.7351 75.6807 43.9774 74.671C43.988 74.6268 43.9304 74.6051 43.9108 74.6467Z" fill="#E9DACB"/>
<path d="M42.2717 73.8532C41.8525 75.0592 41.2973 76.2698 41.2678 77.566C41.2658 77.6508 41.3906 77.686 41.4185 77.5989C41.8097 76.3809 42.1572 75.136 42.3402 73.8681C42.346 73.8281 42.2846 73.816 42.2717 73.8532Z" fill="#E9DACB"/>
<path d="M39.8972 74.1397C39.5025 75.086 39.107 76.0703 39.1496 77.1124C39.152 77.1701 39.244 77.2041 39.2592 77.1363C39.4843 76.1392 39.6441 75.1368 39.9371 74.1541C39.9449 74.128 39.9078 74.1143 39.8972 74.1397Z" fill="#E9DACB"/>
<path d="M38.1113 72.4052C38.1328 72.3535 38.0552 72.3285 38.0314 72.3761C37.6737 73.0928 37.3228 73.8121 37.0847 74.5793C36.9202 75.1092 36.6885 75.9879 37.1024 76.4559C37.1579 76.5187 37.2928 76.4935 37.2889 76.3957C37.2776 76.0999 37.2009 75.8213 37.204 75.5217C37.2079 75.1417 37.2876 74.7658 37.3821 74.3996C37.5593 73.7139 37.8389 73.0571 38.1113 72.4052Z" fill="#E9DACB"/>
<path d="M37.1219 69.8443C36.4875 70.8339 35.8533 71.8228 35.2929 72.8569C35.0388 73.3254 34.8089 73.8066 34.6066 74.2995C34.453 74.6738 34.1612 75.2403 34.3128 75.6432C34.3352 75.7026 34.4329 75.7263 34.4773 75.678C34.7308 75.401 34.7558 74.9083 34.8651 74.5536C35.0334 74.0082 35.2586 73.4807 35.4955 72.9621C35.9819 71.8971 36.5774 70.8845 37.1569 69.8687C37.1701 69.8452 37.1368 69.821 37.1219 69.8443Z" fill="#E9DACB"/>
<path d="M46.4286 55.6767C40.773 56.9383 34.773 51.6192 33.0272 43.7959C31.2808 35.9724 34.4501 28.6073 40.1058 27.3454C45.7612 26.0835 51.7612 31.4025 53.5072 39.226C55.2533 47.0491 52.0839 54.4143 46.4286 55.6767Z" fill="#C3955F"/>
<path d="M41.2037 23.9599C42.8148 26.1592 48.3867 28.9416 49.7637 31.3322C49.7637 31.3322 37.4206 28.6661 38.9099 27.7148C40.8584 26.4706 41.2037 23.9599 41.2037 23.9599Z" fill="#C3955F"/>
<path d="M29.7118 26.1596C28.0248 27.4181 28.8304 29.8814 30.2969 31.2491C30.1437 30.2843 30.7563 29.5751 31.282 29.2399C31.7783 28.9236 33.6273 28.8714 34.0321 28.1646C35.0326 26.4182 30.9838 25.2105 29.7118 26.1596Z" fill="#66462C"/>
<path d="M29.6677 30.8722C29.1351 31.0294 25.5876 30.3995 25.5876 30.3995C25.5876 30.3995 28.2229 27.9421 28.7554 27.7848C29.2878 27.6275 29.9236 28.191 30.1756 29.0437C30.4274 29.896 30.2001 30.7147 29.6677 30.8722Z" fill="#070808"/>
<path d="M32.7984 27.066C32.6231 26.6534 32.1465 26.4611 31.7342 26.6365C31.3217 26.8118 31.1295 27.2885 31.3049 27.7008C31.4804 28.1133 31.9568 28.3055 32.3693 28.1301C32.7817 27.9546 32.974 27.4783 32.7984 27.066Z" fill="#070808"/>
<path d="M32.192 27.3236C32.1392 27.1991 31.9952 27.1412 31.8708 27.194C31.7464 27.2468 31.6881 27.3908 31.7412 27.5154C31.7941 27.64 31.938 27.6977 32.0625 27.6449C32.1869 27.5919 32.2449 27.4481 32.192 27.3236Z" fill="white"/>
<path d="M34.1795 30.0401C34.2465 30.4058 33.7754 30.7984 33.1275 30.9171C32.4795 31.0355 31.9001 30.8352 31.8331 30.4695C31.7662 30.1039 32.2372 29.7112 32.885 29.5927C33.5331 29.4741 34.1126 29.6744 34.1795 30.0401Z" fill="#66462C"/>
<path d="M52.3705 36.3773C52.3471 35.9443 52.0436 35.6592 51.7421 35.3791C51.5497 35.2003 51.2226 35.3751 51.3422 35.6395C51.412 35.7938 51.4765 35.95 51.533 36.1097C51.6049 36.3129 51.7015 36.4683 51.8399 36.6315C52.0564 36.8872 52.3857 36.6602 52.3705 36.3773Z" fill="#936543"/>
<path d="M50.0633 31.8581C49.9016 31.6845 49.727 31.5521 49.5151 31.447C49.3003 31.3404 49.1475 31.3166 48.9208 31.3957C48.8544 31.4187 48.8082 31.5146 48.8275 31.581C48.8773 31.7535 48.9333 31.8586 49.059 31.9897C49.1849 32.1211 49.3053 32.2646 49.4212 32.4048C49.6673 32.7027 49.7374 33.0947 50.1165 33.2617C50.2339 33.3135 50.3903 33.2578 50.459 33.1534C50.7589 32.6977 50.3763 32.1941 50.0633 31.8581Z" fill="#936543"/>
<path d="M51.4357 35.0911C51.3973 34.8669 51.3368 34.65 51.2635 34.4348C51.1199 34.0129 50.7557 33.6795 50.4247 33.3984C50.3114 33.3021 50.13 33.4592 50.2044 33.5859C50.4117 33.9395 50.5426 34.3033 50.6594 34.6939C50.7167 34.8857 50.7487 35.0848 50.7749 35.2829C50.8085 35.5363 50.8159 35.736 51.0224 35.913C51.1318 36.007 51.296 35.9497 51.375 35.8502C51.5512 35.6282 51.4797 35.3478 51.4357 35.0911Z" fill="#936543"/>
<path d="M39.8224 41.4249C39.7422 41.1222 39.4464 40.9247 39.2555 40.6826C39.0801 40.4599 38.9039 40.2178 38.7861 39.9593C38.6795 39.7256 38.256 39.7759 38.2662 40.0563C38.2793 40.4171 38.3444 40.7521 38.5311 41.0647C38.7329 41.4025 38.992 41.8187 39.3965 41.8998C39.6446 41.9496 39.8841 41.6584 39.8224 41.4249Z" fill="#936543"/>
<path d="M41.4498 41.8269C41.375 41.7437 41.3102 41.6657 41.2238 41.5918C41.2755 41.636 41.1409 41.4975 41.1255 41.4787C41.0471 41.3835 41.0063 41.2939 40.9351 41.1401C40.7885 40.8232 40.5942 40.4766 40.2669 40.3319C40.1194 40.2666 39.96 40.3671 39.9024 40.5019C39.7501 40.8581 39.8543 41.3132 39.983 41.6648C40.1414 42.0976 40.4157 42.5087 40.8586 42.6777C41.3554 42.8673 41.8094 42.2266 41.4498 41.8269Z" fill="#936543"/>
<path d="M43.3276 42.2728C43.129 42.0144 42.7758 42.0001 42.5646 41.7753C42.3672 41.5651 42.1755 41.3347 41.9999 41.1047C41.9005 40.9746 41.6373 41.0416 41.6458 41.2192C41.655 41.4101 41.6679 41.6006 41.6882 41.7906C41.7114 42.0078 41.8346 42.1895 41.9532 42.3663C42.2137 42.7551 42.7218 43.0967 43.191 42.9195C43.4552 42.8197 43.4791 42.4699 43.3276 42.2728Z" fill="#936543"/>
<path d="M44.656 42.4268C44.6064 42.2172 44.5058 42.105 44.3259 41.9999C44.2033 41.9283 44.1707 41.8906 44.0788 41.7853C43.9078 41.5892 43.7109 41.4258 43.5149 41.254C43.2951 41.0613 42.9499 41.3216 43.0084 41.5825C43.0365 41.708 43.0628 41.834 43.0927 41.9592C43.1405 42.1588 43.2328 42.3133 43.3537 42.477C43.4476 42.6039 43.5677 42.7102 43.6876 42.8117C43.9011 42.9922 44.1315 43.0518 44.3963 42.9426C44.5848 42.8648 44.7026 42.6233 44.656 42.4268Z" fill="#936543"/>
<path d="M46.7215 42.3678C46.6145 42.1436 46.4296 42.0724 46.2382 41.9414C46.1097 41.8534 46.0062 41.7428 45.9032 41.6271C45.6579 41.3515 45.393 41.1148 45.0937 40.897C44.8442 40.7153 44.512 41.0072 44.6442 41.2796C44.7214 41.4387 44.7896 41.6013 44.8563 41.765C44.9396 41.9696 45.0608 42.1417 45.1948 42.3164C45.4523 42.6519 45.9191 43.1514 46.3853 43.0358C46.6793 42.9628 46.8582 42.6543 46.7215 42.3678Z" fill="#936543"/>
<path d="M51.647 36.6038C51.5554 36.3851 51.4039 36.1712 51.2313 36.0097C51.0158 35.8078 50.7954 35.7605 50.508 35.8042C50.3207 35.8328 50.2807 36.0482 50.3747 36.1833C50.4169 36.2441 50.4423 36.314 50.4662 36.3835C50.493 36.4614 50.5832 36.5317 50.6221 36.5976C50.7135 36.7521 50.7454 36.8944 50.7931 37.0702C50.9004 37.4653 50.8714 37.9718 51.2769 38.2032C51.44 38.2963 51.5942 38.263 51.7162 38.1249C52.0665 37.7285 51.8268 37.0332 51.647 36.6038Z" fill="#936543"/>
<path d="M51.1964 39.3268C51.1591 39.0818 51.1246 38.8366 51.0756 38.5937C50.9837 38.1393 50.7658 37.4606 50.2441 37.3808C50.102 37.359 49.9292 37.4683 49.8907 37.6077C49.8195 37.8653 49.9154 38.0388 49.9828 38.2798C50.0417 38.4905 50.0719 38.7143 50.1027 38.9307C50.1348 39.1558 50.1119 39.4453 50.2117 39.6519C50.3223 39.8809 50.6021 40.1075 50.8625 40.002C51.0931 39.9085 51.231 39.5542 51.1964 39.3268Z" fill="#936543"/>
<path d="M50.0024 39.5726C49.8414 39.2714 49.6682 39.0634 49.3834 38.8784C49.2614 38.7992 49.0727 38.869 49.0675 39.0275C49.0638 39.1399 49.0505 39.258 49.0646 39.3699C49.0819 39.5064 49.1417 39.6383 49.179 39.7712C49.251 40.0276 49.2375 40.3522 49.4583 40.528C49.4869 40.5734 49.5175 40.6169 49.5578 40.6545C49.6982 40.7858 49.8636 40.774 49.9911 40.6336C50.0587 40.5594 50.0883 40.4753 50.1204 40.3817C50.119 40.3837 50.1175 40.3858 50.1161 40.3878C50.2486 40.1255 50.1519 39.8522 50.0024 39.5726Z" fill="#936543"/>
<path d="M47.9113 41.9625C47.7728 41.7559 47.5154 41.6248 47.3395 41.4475C47.2447 41.3519 47.1595 41.2471 47.0773 41.1407C47.0024 41.0439 46.8646 40.974 46.769 40.8981C46.6148 40.7759 46.4445 40.9424 46.4559 41.1011C46.4651 41.228 46.4587 41.3891 46.5174 41.5052C46.5924 41.6535 46.6753 41.7961 46.7681 41.934C46.9391 42.1883 47.1687 42.5015 47.4768 42.5879C47.8754 42.6998 48.1307 42.29 47.9113 41.9625Z" fill="#936543"/>
<path d="M49.0192 40.6881C48.9109 40.543 48.7947 40.4056 48.6732 40.2714C48.4899 40.069 48.3066 39.9494 48.0658 39.8247C47.7232 39.6472 47.2391 40.0598 47.3594 40.4261C47.4335 40.6517 47.5111 40.8442 47.6513 41.0388C47.7549 41.1826 47.8081 41.2664 47.8945 41.4203C48.0443 41.6872 48.237 41.9539 48.5682 41.9842C48.3627 41.9654 48.6982 42.041 48.716 42.0426C48.8166 42.0519 48.9419 42.0381 49.0163 41.9592C49.0755 41.8964 49.1358 41.8422 49.1623 41.7561C49.1741 41.7202 49.1846 41.6839 49.1939 41.6473C49.1355 41.754 49.1514 41.7222 49.2416 41.5519C49.3511 41.2507 49.1987 40.9288 49.0192 40.6881Z" fill="#936543"/>
<path d="M53.1806 39.9802C53.1773 39.7526 53.1509 39.5291 53.1118 39.3052C53.035 38.8662 52.7267 38.4804 52.4431 38.1517C52.346 38.0391 52.1426 38.1662 52.1965 38.3029C52.3467 38.6843 52.4199 39.0639 52.4748 39.4679C52.5019 39.6663 52.5027 39.8679 52.498 40.0677C52.4921 40.3232 52.4686 40.5217 52.6452 40.7284C52.7389 40.8381 52.9099 40.807 53.0033 40.7208C53.2117 40.5286 53.1843 40.2406 53.1806 39.9802Z" fill="#936543"/>
<path d="M40.7282 44.4446C40.6958 44.1331 40.434 43.8924 40.2829 43.6236C40.1439 43.3766 40.0072 43.1101 39.9308 42.8366C39.8616 42.5892 39.4353 42.5736 39.4021 42.8522C39.3593 43.2107 39.3719 43.5516 39.5081 43.8894C39.6553 44.2542 39.847 44.7055 40.234 44.848C40.4716 44.9356 40.7532 44.6848 40.7282 44.4446Z" fill="#936543"/>
<path d="M42.2741 45.093C42.213 44.9993 42.1611 44.9123 42.0871 44.8259C42.1314 44.8775 42.0197 44.72 42.0074 44.699C41.9447 44.5928 41.9183 44.498 41.8716 44.335C41.7757 43.9993 41.6372 43.6268 41.3363 43.4334C41.2006 43.3461 41.0276 43.4207 40.9499 43.545C40.7444 43.8734 40.7772 44.3392 40.85 44.7064C40.9396 45.1585 41.1471 45.607 41.5586 45.8424C42.0201 46.1064 42.5676 45.5435 42.2741 45.093Z" fill="#936543"/>
<path d="M44.0604 45.8236C43.9041 45.5377 43.5574 45.4689 43.3835 45.2142C43.2208 44.9761 43.067 44.7188 42.929 44.4644C42.851 44.3205 42.5806 44.3461 42.5616 44.5229C42.5412 44.7128 42.5245 44.9031 42.5152 45.094C42.5046 45.3122 42.5982 45.5107 42.688 45.7037C42.8854 46.128 43.3346 46.544 43.8255 46.4414C44.102 46.3837 44.1796 46.0417 44.0604 45.8236Z" fill="#936543"/>
<path d="M45.3492 46.1809C45.3325 45.9662 45.2504 45.8397 45.0889 45.7082C44.9788 45.6184 44.9525 45.5762 44.878 45.458C44.7393 45.2378 44.57 45.046 44.4029 44.8459C44.2154 44.6216 43.8342 44.8254 43.8517 45.0923C43.8601 45.2206 43.8665 45.3491 43.8768 45.4774C43.8931 45.682 43.9605 45.849 44.0548 46.0293C44.1279 46.1692 44.2301 46.2928 44.3329 46.4115C44.5159 46.6229 44.7345 46.7173 45.0129 46.6504C45.2111 46.6027 45.3648 46.3822 45.3492 46.1809Z" fill="#936543"/>
<path d="M47.399 46.4415C47.3279 46.2035 47.1562 46.1046 46.9874 45.9456C46.874 45.8388 46.7889 45.7137 46.705 45.5833C46.5051 45.2731 46.28 44.9984 46.0179 44.737C45.7994 44.519 45.4261 44.7561 45.5148 45.0456C45.5664 45.2147 45.6086 45.3859 45.6492 45.5579C45.7 45.773 45.7931 45.9617 45.8986 46.155C46.1012 46.5262 46.4852 47.0918 46.9637 47.0496C47.2654 47.0229 47.4899 46.7457 47.399 46.4415Z" fill="#936543"/>
<path d="M53.1556 41.5073C53.099 41.2771 52.9822 41.0424 52.8367 40.8561C52.6549 40.6234 52.4444 40.5425 52.1538 40.5414C51.9643 40.5407 51.8916 40.7473 51.9635 40.8954C51.9959 40.9619 52.0102 41.0349 52.0231 41.1072C52.0375 41.1884 52.1157 41.2718 52.144 41.3428C52.2104 41.5096 52.22 41.6551 52.24 41.8362C52.285 42.2432 52.1781 42.7391 52.543 43.0303C52.6897 43.1475 52.8472 43.1384 52.9891 43.0208C53.3963 42.6833 53.2669 41.9593 53.1556 41.5073Z" fill="#936543"/>
<path d="M52.2899 44.128C52.2908 43.8803 52.2946 43.6327 52.2837 43.3851C52.2631 42.922 52.1527 42.2178 51.6495 42.0584C51.5124 42.015 51.3249 42.0962 51.2652 42.228C51.1551 42.4715 51.2231 42.6578 51.2525 42.9062C51.2781 43.1235 51.2734 43.3493 51.2705 43.5678C51.2674 43.7951 51.2001 44.0777 51.2667 44.2972C51.3407 44.5405 51.5821 44.8077 51.8556 44.7436C52.0979 44.6869 52.289 44.3581 52.2899 44.128Z" fill="#936543"/>
<path d="M51.0723 44.1865C50.9596 43.8641 50.8207 43.6318 50.5678 43.4051C50.4595 43.308 50.2623 43.3479 50.2327 43.5036C50.2118 43.614 50.1804 43.7287 50.1771 43.8415C50.173 43.9791 50.2117 44.1186 50.228 44.2556C50.2595 44.5201 50.1961 44.8387 50.3871 45.0465C50.4083 45.0957 50.4319 45.1434 50.4659 45.1868C50.5843 45.3382 50.7495 45.352 50.8972 45.2331C50.9754 45.1702 51.0177 45.0916 51.0638 45.0041C51.0621 45.0059 51.0604 45.0077 51.0587 45.0095C51.23 44.7709 51.1767 44.4859 51.0723 44.1865Z" fill="#936543"/>
<path d="M48.637 46.225C48.5321 45.9994 48.2981 45.8301 48.1516 45.6278C48.0726 45.5187 48.0047 45.4019 47.94 45.2841C47.881 45.1769 47.7556 45.0866 47.6728 44.9969C47.5394 44.8523 47.3454 44.9905 47.3322 45.1491C47.3216 45.2759 47.2905 45.4341 47.3305 45.5578C47.3816 45.7159 47.4415 45.8697 47.5119 46.0203C47.6416 46.2978 47.8201 46.6427 48.1112 46.7757C48.4878 46.9478 48.8032 46.5824 48.637 46.225Z" fill="#936543"/>
<path d="M49.9285 45.1368C49.8439 44.9767 49.7503 44.8231 49.651 44.6717C49.5012 44.4434 49.3385 44.2969 49.1198 44.1365C48.8087 43.9084 48.2668 44.2412 48.3291 44.6218C48.3675 44.856 48.4144 45.0581 48.5228 45.2721C48.603 45.4301 48.6426 45.5211 48.7042 45.6867C48.8111 45.9735 48.9601 46.2668 49.2828 46.3478C49.0826 46.2975 49.4025 46.424 49.4197 46.4284C49.5177 46.4531 49.6436 46.4587 49.7293 46.3923C49.7974 46.3394 49.8654 46.2951 49.9049 46.2142C49.9221 46.1805 49.9382 46.1463 49.953 46.1116C49.8789 46.208 49.8995 46.1791 50.0149 46.0247C50.1695 45.744 50.0687 45.4023 49.9285 45.1368Z" fill="#936543"/>
<path d="M53.8264 42.2628C53.7343 42.0518 53.6172 41.8745 53.4573 41.7099C53.295 41.5431 53.1628 41.4722 52.9299 41.4715C52.8617 41.4712 52.7886 41.544 52.7848 41.611C52.7747 41.7849 52.7921 41.8991 52.8649 42.0596C52.9379 42.2204 53.0017 42.3905 53.0626 42.5563C53.1917 42.9081 53.1297 43.2895 53.4227 43.5644C53.5135 43.6496 53.6745 43.649 53.7711 43.5756C54.1924 43.2553 54.0046 42.6711 53.8264 42.2628Z" fill="#936543"/>
<path d="M54.0405 45.6636C54.0777 45.446 54.0921 45.2281 54.0944 45.0075C54.099 44.5752 53.8731 44.1527 53.6607 43.7889C53.588 43.6642 53.3716 43.7495 53.3987 43.8894C53.4745 44.2797 53.477 44.6549 53.458 45.05C53.4487 45.244 53.4138 45.4365 53.3739 45.6262C53.323 45.8689 53.2655 46.0541 53.3974 46.2826C53.4672 46.4038 53.6359 46.4043 53.7403 46.3387C53.9731 46.1923 53.998 45.9126 54.0405 45.6636Z" fill="#936543"/>
<path d="M41.3718 47.7176C41.396 47.4149 41.1889 47.1387 41.0924 46.8557C41.0036 46.5953 40.9204 46.317 40.8958 46.0426C40.8737 45.7943 40.4698 45.7039 40.3888 45.9638C40.2846 46.2982 40.2361 46.6257 40.3063 46.972C40.382 47.3461 40.485 47.8104 40.829 48.015C41.0401 48.1405 41.3531 47.9512 41.3718 47.7176Z" fill="#936543"/>
<path d="M42.7315 48.6099C42.6899 48.5096 42.6558 48.4175 42.6006 48.3219C42.6336 48.379 42.555 48.209 42.5469 48.1869C42.5059 48.0744 42.4975 47.9792 42.4819 47.8156C42.4499 47.4784 42.3837 47.0985 42.1308 46.8607C42.0169 46.7534 41.8386 46.7939 41.7425 46.8987C41.4884 47.1756 41.4371 47.6258 41.4416 47.989C41.447 48.436 41.5656 48.9006 41.9164 49.1981C42.3098 49.5315 42.9318 49.0915 42.7315 48.6099Z" fill="#936543"/>
<path d="M44.3062 49.623C44.2078 49.3225 43.8891 49.1956 43.7684 48.922C43.6554 48.6659 43.5542 48.3933 43.4677 48.1263C43.4187 47.9751 43.1562 47.9517 43.1067 48.117C43.0537 48.2946 43.0041 48.4731 42.9614 48.6535C42.9126 48.8598 42.9667 49.0657 43.0183 49.2658C43.1315 49.7054 43.4864 50.1818 43.9728 50.1708C44.2467 50.1646 44.3812 49.8522 44.3062 49.623Z" fill="#936543"/>
<path d="M45.4723 50.192C45.4944 49.9842 45.4385 49.8491 45.3077 49.695C45.2186 49.59 45.2008 49.5451 45.1508 49.419C45.0575 49.1845 44.93 48.9715 44.806 48.7511C44.6669 48.504 44.2671 48.6308 44.2365 48.8885C44.2219 49.0124 44.2052 49.1362 44.1923 49.2603C44.1717 49.4584 44.2064 49.6296 44.2643 49.8182C44.3093 49.9646 44.385 50.1006 44.4619 50.232C44.5991 50.4661 44.7909 50.5948 45.0684 50.5802C45.2659 50.5699 45.4515 50.3868 45.4723 50.192Z" fill="#936543"/>
<path d="M47.3815 50.8035C47.3558 50.5639 47.2095 50.4392 47.0766 50.2576C46.9874 50.1356 46.9284 50.0011 46.8714 49.862C46.7357 49.5307 46.5696 49.2288 46.3659 48.933C46.196 48.6864 45.7981 48.8465 45.8313 49.1384C45.8506 49.3088 45.8606 49.4795 45.8688 49.6508C45.8791 49.8649 45.9345 50.0616 46.0009 50.2645C46.1285 50.6545 46.3946 51.262 46.8584 51.3064C47.151 51.3345 47.4142 51.1097 47.3815 50.8035Z" fill="#936543"/>
<path d="M53.7464 47.1159C53.7331 46.8863 53.6633 46.6418 53.5575 46.4383C53.4252 46.1841 53.2388 46.0697 52.9618 46.0172C52.7812 45.9829 52.6751 46.1673 52.7175 46.3212C52.7366 46.3905 52.7374 46.4626 52.7369 46.5338C52.7362 46.6139 52.7961 46.7072 52.8105 46.7801C52.8443 46.9509 52.8277 47.0914 52.8147 47.2677C52.7855 47.6638 52.5957 48.118 52.8922 48.4604C53.0115 48.5981 53.1634 48.6174 53.3195 48.5302C53.7678 48.2803 53.7725 47.5667 53.7464 47.1159Z" fill="#936543"/>
<path d="M52.4564 49.4626C52.5013 49.2264 52.5487 48.9909 52.5822 48.7528C52.6445 48.3074 52.6638 47.6161 52.2122 47.375C52.0891 47.3093 51.8958 47.3536 51.8156 47.4687C51.6674 47.6815 51.6992 47.8712 51.6832 48.1134C51.6692 48.3252 51.6247 48.5398 51.5833 48.7477C51.5401 48.964 51.4259 49.2215 51.4505 49.4427C51.478 49.688 51.661 49.9856 51.9332 49.9729C52.1745 49.9617 52.4149 49.6819 52.4564 49.4626Z" fill="#936543"/>
<path d="M51.2846 49.3028C51.2342 48.9753 51.1428 48.7291 50.9419 48.4681C50.8557 48.3563 50.6605 48.3594 50.6047 48.5028C50.5652 48.6044 50.5149 48.7082 50.4918 48.8151C50.4636 48.9457 50.4757 49.0857 50.4671 49.2192C50.4503 49.4771 50.3335 49.7698 50.4788 50.0018C50.4902 50.0525 50.5044 50.1022 50.5291 50.1496C50.6153 50.315 50.7704 50.3575 50.9324 50.2702C51.0181 50.224 51.0724 50.1566 51.1319 50.0812C51.1299 50.0827 51.1279 50.0841 51.1259 50.0855C51.3317 49.8882 51.3313 49.6069 51.2846 49.3028Z" fill="#936543"/>
<path d="M48.6007 50.8161C48.5406 50.5824 48.3474 50.3795 48.2434 50.1606C48.1874 50.0425 48.1433 49.9191 48.1024 49.7953C48.0651 49.6826 47.9615 49.5743 47.8984 49.474C47.7968 49.3124 47.5872 49.41 47.5466 49.5589C47.514 49.678 47.4562 49.8232 47.4726 49.9484C47.4934 50.1082 47.5233 50.2656 47.5637 50.4217C47.6383 50.7094 47.7475 51.0699 48.0015 51.2484C48.3304 51.4792 48.696 51.1865 48.6007 50.8161Z" fill="#936543"/>
<path d="M50.0254 50.0068C49.973 49.8392 49.9109 49.6759 49.843 49.514C49.7406 49.2697 49.6114 49.1012 49.4312 48.9095C49.1748 48.6367 48.5989 48.8583 48.591 49.2323C48.586 49.4625 48.5951 49.6637 48.6607 49.8869C48.7091 50.0519 48.7308 50.1457 48.7602 50.3145C48.8113 50.607 48.9017 50.9131 49.195 51.0476C49.013 50.9642 49.2957 51.1414 49.3114 51.1487C49.4005 51.1896 49.5195 51.2173 49.6131 51.1691C49.6874 51.1306 49.7601 51.1005 49.8122 51.0303C49.8345 51.0012 49.8559 50.9715 49.8762 50.941C49.7884 51.0198 49.8132 50.9958 49.9506 50.8691C50.1477 50.6286 50.1121 50.2849 50.0254 50.0068Z" fill="#936543"/>
<path d="M52.133 50.6945C51.8871 51.0223 51.7197 51.3748 51.5162 51.7268C51.4202 51.8929 51.3062 52.0495 51.1698 52.1845C51.0856 52.2678 50.9522 52.3652 50.902 52.3955C50.8021 52.4556 50.6958 52.5045 50.5873 52.5467C50.5771 52.5507 50.5107 52.5749 50.4845 52.5853C50.4893 52.5443 50.4965 52.5035 50.5035 52.463C50.5468 52.2099 50.3103 51.9756 50.072 51.9565C49.7961 51.9343 49.6126 52.1359 49.5654 52.3879C49.5635 52.3984 49.5613 52.4091 49.5593 52.4196C49.5616 52.4048 49.5435 52.4889 49.5405 52.501C49.5226 52.5734 49.5019 52.6451 49.4807 52.7166C49.43 52.8878 49.3689 53.056 49.3032 53.2221C49.1725 53.5524 49.0612 53.7712 48.8306 54.075C48.8137 54.0971 48.7962 54.1189 48.7784 54.1403C48.7749 54.1446 48.7724 54.1477 48.7697 54.151C48.7669 54.1539 48.7643 54.1564 48.7607 54.1601C48.7544 54.1667 48.7416 54.1778 48.7267 54.1903C48.7231 54.1826 48.7194 54.175 48.7157 54.1673C48.633 53.991 48.5939 53.791 48.5483 53.5467C48.4276 52.9 47.4816 52.9702 47.4135 53.6086C47.351 54.1957 47.24 54.7044 46.7445 55.0829C46.7226 55.041 46.7032 54.9976 46.6844 54.9543C46.6766 54.9364 46.6223 54.7807 46.6262 54.7974C46.5834 54.6586 46.5487 54.5171 46.5137 54.3762C46.3487 53.7108 45.3701 53.737 45.3003 54.4423C45.286 54.5873 45.2767 54.7328 45.259 54.8773C45.2567 54.8948 45.2536 54.912 45.2507 54.9294C45.2495 54.9341 45.2482 54.9386 45.2466 54.9445C45.2443 54.9521 45.2409 54.9594 45.2383 54.9669C45.238 54.967 45.2377 54.9671 45.2374 54.9672C45.2427 54.9464 45.2338 54.9576 45.2293 54.9692C45.2291 54.9693 45.2291 54.9693 45.229 54.9693C45.1665 54.9846 45.1015 54.9896 45.0377 54.9955C45.1311 54.9869 45.0137 54.9831 44.9507 54.9801C44.9462 54.9787 44.9421 54.9775 44.9367 54.9759C44.9323 54.9744 44.9294 54.9736 44.9258 54.9725C44.9231 54.9707 44.9212 54.9694 44.918 54.9673C44.9143 54.9644 44.9116 54.9624 44.9084 54.96C44.8987 54.9491 44.8885 54.9385 44.8794 54.9271C44.8686 54.9071 44.8577 54.8872 44.8482 54.8665C44.8376 54.8437 44.8282 54.8203 44.8191 54.7969C44.819 54.7965 44.8189 54.7963 44.8188 54.796C44.7959 54.7158 44.7816 54.6334 44.7685 54.5512C44.7372 54.3549 44.7317 54.1875 44.659 53.997C44.6028 53.8498 44.4932 53.7356 44.3953 53.615C44.2406 53.4243 43.9733 53.4709 43.8307 53.6422C43.6756 53.8287 43.558 54.009 43.5249 54.2568C43.4946 54.4833 43.5446 54.7571 43.5957 54.9801C43.7131 55.4922 43.9938 55.8905 44.4718 56.1171C44.913 56.3262 45.5328 56.2402 45.9458 55.9776C46.2392 56.2697 46.6791 56.341 47.0721 56.1979C47.5721 56.0159 47.9282 55.63 48.1669 55.1685C48.177 55.1749 48.1866 55.1821 48.197 55.188C48.6152 55.4259 49.0776 55.3075 49.4001 54.968C49.7229 54.6283 49.9227 54.2083 50.108 53.7825C50.143 53.702 50.1757 53.6203 50.2071 53.5382C50.5311 53.5973 50.8989 53.4213 51.151 53.2563C51.4877 53.0358 51.7497 52.7072 51.9294 52.3511C52.0507 52.1109 52.1328 51.8587 52.2039 51.5998C52.2783 51.3286 52.2932 51.0473 52.348 50.7717C52.3726 50.6487 52.1976 50.6085 52.133 50.6945Z" fill="#845B3C"/>
<path d="M23.1289 36.8566C21.0978 37.2585 13.528 37.8424 10.8468 37.9026C8.36468 37.9587 1.24345 37.5165 0.494013 38.155C-0.557445 39.0502 3.28507 42.7008 12.07 41.6181C16.1149 41.1195 19.8768 39.5832 23.6146 38.0061L23.1289 36.8566Z" fill="#936543"/>
<path d="M23.0403 38.6841C21.1832 39.4257 14.074 41.3035 11.5255 41.8264C9.16647 42.3109 2.29035 43.1143 1.68961 43.8648C0.83245 44.9393 5.29383 47.7902 13.4606 45.2182C17.2209 44.034 20.497 41.8919 23.7414 39.7146L23.0403 38.6841Z" fill="#845B3C"/>
<path d="M23.2672 40.377C21.6277 41.3926 15.1591 44.3534 12.8103 45.2697C10.6362 46.1185 4.19422 48.0004 3.74913 48.8261C3.10371 50.0328 8.0007 52.0312 15.3488 48.2298C18.7322 46.4793 21.4587 43.8832 24.1476 41.2581L23.2672 40.377Z" fill="#936543"/>
<path d="M23.8215 41.977C22.4244 43.2016 16.7134 47.0291 14.6094 48.2667C12.662 49.4125 6.78529 52.1931 6.49678 53.0611C6.06735 54.3537 11.2313 55.4867 17.6355 50.7186C20.5844 48.523 22.7348 45.6164 24.8433 42.6879L23.8215 41.977Z" fill="#845B3C"/>
<path d="M24.6856 43.4593C23.5444 44.8345 18.6653 49.3322 16.8361 50.8248C15.1433 52.2067 9.92562 55.7207 9.78773 56.6014C9.57801 57.9412 14.8536 58.2106 20.2383 52.7131C22.718 50.1815 24.288 47.0908 25.8131 43.9854L24.6856 43.4593Z" fill="#936543"/>
<path d="M25.8149 44.7662C24.9379 46.2415 20.9441 51.239 19.4127 52.9291C17.9957 54.4938 13.509 58.5973 13.5164 59.4655C13.5276 60.8155 18.7727 60.2267 23.0858 54.2056C25.072 51.4328 26.0666 48.2673 27.0144 45.0949L25.8149 44.7662Z" fill="#845B3C"/>
<path d="M27.124 45.8491C26.5187 47.3788 23.4614 52.7251 22.2495 54.562C21.1283 56.2626 17.4408 60.83 17.5883 61.662C17.823 62.9856 22.8946 61.539 26.0873 55.1777C27.5577 52.2481 27.9835 49.1073 28.3621 45.967L27.124 45.8491Z" fill="#936543"/>
<path d="M28.2928 46.736C27.967 48.2764 25.9022 53.8248 25.034 55.7597C24.2308 57.5508 21.4175 62.4622 21.7004 63.2339C22.1614 64.4904 26.8998 62.1852 28.9189 55.6617C29.8488 52.6571 29.7135 49.6386 29.5319 46.6287L28.2928 46.736Z" fill="#845B3C"/>
<path d="M29.1265 47.3096C29.0874 48.8127 28.0732 54.4035 27.5743 56.3823C27.1128 58.2142 25.2548 63.3385 25.6669 64.0229C26.3543 65.1645 30.572 62.0132 31.364 55.5208C31.7288 52.5308 31.0469 49.7386 30.3214 46.9638L29.1265 47.3096Z" fill="#936543"/>
<path d="M30.1995 47.6061C30.447 49.0173 30.5239 54.4607 30.4152 56.4189C30.3148 58.2312 29.4846 63.4071 30.0136 63.9749C30.9182 64.9459 34.3979 61.0009 33.934 54.7663C33.7205 51.8946 32.5273 49.4422 31.295 47.0158L30.1995 47.6061Z" fill="#845B3C"/>
<path d="M32.1404 47.6658C32.658 48.9256 33.8115 54.0024 34.0955 55.8624C34.3589 57.5839 34.5862 62.6125 35.2092 63.0353C36.3028 63.7775 38.824 59.1657 37.1425 53.4441C36.3678 50.8086 34.7372 48.8083 33.0742 46.8419L32.1404 47.6658Z" fill="#936543"/>
<path d="M33.8943 47.339C34.6393 48.3936 36.7612 52.8861 37.4081 54.5684C38.007 56.1252 39.2365 60.7918 39.9191 61.0506C41.1499 61.517 42.5434 56.4541 39.7917 51.4903C38.5242 49.2039 36.5779 47.7404 34.608 46.3177L33.8943 47.339Z" fill="#845B3C"/>
<path d="M35.5582 46.4825C36.4644 47.2996 39.3478 51.0508 40.2901 52.4932C41.1624 53.8284 43.2373 57.9542 43.9385 58.0475C45.2382 58.217 45.4471 52.9762 41.8831 48.9364C40.2411 47.0754 38.1348 46.1762 36.0148 45.322L35.5582 46.4825Z" fill="#936543"/>
<path d="M37.2144 44.8966C38.2076 45.4753 41.5921 48.4323 42.7405 49.6089C43.8035 50.6975 46.4983 54.192 47.1805 54.134C48.4811 54.0235 47.5792 48.8597 43.5123 45.7835C41.6383 44.3662 39.5251 43.9915 37.4081 43.6635L37.2144 44.8966Z" fill="#845B3C"/>
<path d="M46.7464 49.9538C46.2702 49.0347 45.4457 48.3557 44.7273 47.6325C44.6822 47.5871 44.6139 47.6449 44.6519 47.6967C45.1915 48.4324 45.7383 49.1587 46.1596 49.9716C46.3752 50.3878 46.5003 50.8322 46.5582 51.2959C46.6172 51.7689 46.4926 52.2861 46.722 52.7201C46.7595 52.7909 46.867 52.8284 46.9303 52.7641C47.6038 52.0787 47.1263 50.6869 46.7464 49.9538Z" fill="#E9DACB"/>
<path d="M44.479 55.9192C44.4449 55.4057 44.3756 54.8768 44.2084 54.3877C43.8612 53.3711 43.3388 52.4949 42.6768 51.6554C42.6664 51.6424 42.6472 51.6563 42.6532 51.6708C43.0262 52.5653 43.4131 53.4795 43.6332 54.4252C43.7507 54.9298 43.8419 55.434 43.8609 55.953C43.8763 56.376 43.7326 56.8341 43.9783 57.2027C44.0344 57.287 44.1779 57.2894 44.2476 57.2243C44.5899 56.9053 44.5077 56.3497 44.479 55.9192Z" fill="#E9DACB"/>
<path d="M41.0468 58.4169C41.0795 57.8732 41.0975 57.3291 41.085 56.7844C41.0637 55.8666 40.8656 54.9223 40.406 54.1215C40.3924 54.0978 40.3571 54.1144 40.3677 54.1397C40.7584 55.0704 40.7565 56.0614 40.7075 57.0528C40.6857 57.4965 40.636 57.9388 40.584 58.3798C40.5327 58.8154 40.4302 59.24 40.5626 59.669C40.6054 59.8075 40.7702 59.8196 40.8347 59.6908C41.0348 59.2914 41.0206 58.8542 41.0468 58.4169Z" fill="#E9DACB"/>
<path d="M36.8132 56.3943C36.8092 56.376 36.7844 56.3819 36.7855 56.3997C36.8532 57.514 36.778 58.604 36.5859 59.7026C36.49 60.2517 36.316 60.7846 36.0883 61.2923C35.8829 61.7506 35.4174 62.2141 35.3585 62.7141C35.346 62.8204 35.4588 62.9348 35.5681 62.902C36.0612 62.754 36.3058 62.1813 36.5227 61.7541C36.7928 61.2218 36.9283 60.6147 37.0291 60.0303C37.236 58.8314 37.0729 57.5719 36.8132 56.3943Z" fill="#E9DACB"/>
<path d="M32.9797 58.0773C32.9798 58.0712 32.9707 58.0703 32.9703 58.0765C32.9315 58.5961 32.7364 59.093 32.5892 59.589C32.411 60.1885 32.1595 60.7537 31.9075 61.3243C31.6542 61.8979 31.3363 62.4419 30.9504 62.9361C30.6498 63.3212 30.1718 63.5886 29.9547 64.0291C29.9005 64.1389 30.0038 64.2659 30.1128 64.2753C30.6339 64.3206 31.0251 63.8336 31.3235 63.4715C31.7463 62.9583 32.0562 62.3496 32.3218 61.7439C32.8384 60.5652 32.9807 59.3465 32.9797 58.0773Z" fill="#E9DACB"/>
<path d="M29.1539 60.2149C28.8395 61.0416 28.3593 61.8487 27.8168 62.5465C27.5318 62.9132 27.1886 63.2426 26.8133 63.5157C26.4877 63.7527 25.9431 63.7967 25.7031 64.1135C25.6409 64.1956 25.6668 64.3229 25.7505 64.3795C26.1085 64.6214 26.6184 64.3313 26.9405 64.1389C27.403 63.8626 27.7742 63.475 28.0953 63.0474C28.7203 62.2154 29.0742 61.2541 29.2635 60.2389C29.2756 60.1743 29.1759 60.1572 29.1539 60.2149Z" fill="#E9DACB"/>
<path d="M25.2394 61.037C24.7606 61.6126 24.1638 62.0575 23.4869 62.375C23.1562 62.5302 22.7957 62.6356 22.4375 62.7033C22.1124 62.7648 21.7544 62.6494 21.4559 62.8012C21.3769 62.8413 21.3468 62.9516 21.4096 63.0203C21.8871 63.5439 23.021 63.0669 23.5214 62.7866C24.2401 62.384 24.8531 61.7664 25.286 61.0695C25.3054 61.038 25.2627 61.009 25.2394 61.037Z" fill="#E9DACB"/>
<path d="M21.9367 59.3073C21.4687 59.7941 20.9445 60.2166 20.4123 60.6307C20.1209 60.8574 19.8088 61.0537 19.4821 61.2251C19.17 61.3888 18.8373 61.4681 18.5417 61.6581C18.4804 61.6976 18.456 61.8189 18.5507 61.8405C19.2176 61.9924 19.91 61.474 20.4301 61.1039C21.0721 60.647 21.599 60.0543 22.0616 59.4204C22.1173 59.3439 22.0045 59.2369 21.9367 59.3073Z" fill="#E9DACB"/>
<path d="M18.7752 57.7545C18.0521 58.2858 17.3555 58.8757 16.5604 59.2976C16.1226 59.5298 15.6434 59.6813 15.146 59.6878C14.6765 59.694 14.2961 59.3614 13.856 59.3699C13.7772 59.3714 13.7152 59.4435 13.7519 59.5218C13.9354 59.9139 14.4673 59.9996 14.8603 60.0472C15.3201 60.1028 15.7858 59.9782 16.2099 59.8128C17.2391 59.411 18.0696 58.5916 18.8394 57.8299C18.8848 57.7849 18.8269 57.7167 18.7752 57.7545Z" fill="#E9DACB"/>
<path d="M15.5587 55.6092C14.7478 56.0851 13.8025 56.3596 12.8762 56.505C12.4129 56.5778 11.9455 56.6215 11.4773 56.5861C11.0903 56.557 10.6505 56.2962 10.2679 56.3825C10.1562 56.4077 10.1179 56.5126 10.1519 56.613C10.4386 57.4622 12.2125 57.2034 12.8355 57.035C13.8407 56.7633 14.7454 56.2541 15.597 55.6681C15.6301 55.6453 15.5933 55.5889 15.5587 55.6092Z" fill="#E9DACB"/>
<path d="M13.3724 52.6844C12.4187 53.1528 11.3349 53.4136 10.2822 53.5274C9.70033 53.5902 9.08485 53.5337 8.51034 53.4356C8.25323 53.3916 8.00482 53.3061 7.76772 53.1992C7.53235 53.0932 7.35688 52.9013 7.12435 52.7909C6.89087 52.6802 6.65189 52.976 6.76365 53.1897C6.99228 53.6261 7.58148 53.8076 8.03554 53.8919C8.67854 54.0114 9.31915 53.9646 9.96028 53.8558C11.141 53.6553 12.3553 53.3469 13.4092 52.7609C13.4567 52.7346 13.4221 52.6601 13.3724 52.6844Z" fill="#E9DACB"/>
<path d="M10.2551 49.2455C9.36574 49.6887 8.36433 49.9541 7.37087 49.9956C6.87318 50.0164 6.35526 49.8952 5.90478 49.69C5.66873 49.5827 5.44724 49.4168 5.26947 49.2298C5.1243 49.077 4.98572 48.9139 4.76167 48.9066C4.67294 48.9037 4.60088 48.9497 4.56677 49.0316C4.36918 49.5058 5.04098 49.9715 5.40627 50.1326C5.91943 50.3588 6.4873 50.4231 7.04367 50.3854C8.20244 50.3065 9.3369 50.0245 10.3595 49.4622C10.4944 49.3879 10.395 49.1757 10.2551 49.2455Z" fill="#E9DACB"/>
<path d="M9.08461 45.6337C7.96123 45.792 6.73081 45.6962 5.60784 45.5808C4.98979 45.5173 4.36712 45.4106 3.78795 45.1794C3.58532 45.0985 3.38796 44.9892 3.23542 44.8314C3.10618 44.6978 3.05408 44.5609 2.87828 44.4795C2.82696 44.4556 2.77105 44.4845 2.73841 44.5236C2.42948 44.895 3.01525 45.3029 3.29639 45.4526C3.8622 45.7535 4.52988 45.8541 5.15891 45.9247C6.44756 46.0693 7.83981 46.0485 9.09532 45.6892C9.12993 45.6793 9.12124 45.6285 9.08461 45.6337Z" fill="#E9DACB"/>
<path d="M8.22763 41.3739C6.80351 41.2427 5.32129 40.7688 3.97692 40.3018C3.23696 40.0449 2.50406 39.7334 1.86019 39.282C1.63513 39.1241 1.42467 38.9328 1.28321 38.6951C1.1634 38.4936 1.1389 38.3105 0.946756 38.1598C0.890811 38.1155 0.813721 38.1348 0.762446 38.1735C0.275791 38.5396 0.876303 39.2099 1.17786 39.4748C1.78488 40.0081 2.57501 40.3249 3.32633 40.5938C4.86563 41.1447 6.58 41.5223 8.22451 41.4452C8.26997 41.443 8.2741 41.3781 8.22763 41.3739Z" fill="#E9DACB"/>
<path d="M33.6586 33.2944C33.5755 34.7653 31.5199 35.4833 30.4336 35.6845C27.3117 36.263 23.9754 35.9769 20.908 36.7898C18.3282 37.4735 17.8647 37.8164 18.5952 39.8965C19.5126 42.5083 23.4585 46.8628 29.5735 48.1324C33.9012 49.0308 40.52 46.0224 40.3852 42.1222L33.6586 33.2944Z" fill="#C3955F"/>
<path d="M19.6105 37.2603C18.6658 37.3744 17.1953 37.6767 16.7559 38.6528C16.0481 40.2251 18.7022 40.3865 19.5181 40.322L19.6105 37.2603Z" fill="#C3955F"/>
<path d="M19.2038 39.9453C18.6609 40.2934 17.2423 40.9789 17.3716 41.7734C17.6267 43.3427 20.2102 42.3701 20.9501 42.0374L19.2038 39.9453Z" fill="#C3955F"/>
<path d="M20.6168 41.8959C20.0464 42.3036 18.7397 43.4124 19.0253 44.2063C19.2187 44.7433 20.1515 44.9755 20.6389 44.9927C21.5667 45.0257 22.27 44.4417 22.9107 43.8405L20.6168 41.8959Z" fill="#C3955F"/>
<path d="M22.4421 43.956C21.9963 44.4968 20.8318 45.4405 21.1166 46.2444C21.6251 47.68 23.9193 46.3969 24.6539 45.9706L22.4421 43.956Z" fill="#C3955F"/>
<path d="M24.558 45.7333C24.364 46.3465 23.7339 47.5411 23.9653 48.1668C24.4508 49.48 26.3086 47.7971 26.7653 47.3266L24.558 45.7333Z" fill="#C3955F"/>
<path d="M26.4215 46.8396C26.2499 47.454 26.0387 48.5963 26.6712 49.0218C27.8422 49.8098 28.7543 48.0219 29.1067 47.2463L26.4215 46.8396Z" fill="#C3955F"/>
<path d="M28.5438 47.5839C28.3155 48.2562 28.3402 49.4057 29.1308 49.7193C30.3289 50.1947 31.2049 48.6463 31.4025 47.7366L28.5438 47.5839Z" fill="#C3955F"/>
<path d="M30.6676 47.8308C30.5727 48.6271 31.0805 49.7121 31.7407 50.1603C33.0176 51.0273 32.9785 48.728 33.0288 47.9818L30.6676 47.8308Z" fill="#C3955F"/>
<path d="M32.6744 48.1065C32.8875 48.6527 33.5973 49.8242 34.3101 49.7523C35.2214 49.6604 35.0383 48.049 34.9855 47.4498L32.6744 48.1065Z" fill="#C3955F"/>
<path d="M34.2537 47.5059C34.5879 48.119 35.0989 49.1673 35.9051 49.2576C37.1034 49.3916 36.6934 47.3218 36.3457 46.7168L34.2537 47.5059Z" fill="#C3955F"/>
<path d="M35.9059 46.9495C36.4639 47.5356 37.2444 48.3559 38.1483 48.1088C39.4147 47.7626 38.9277 46.3823 38.4652 45.5854L35.9059 46.9495Z" fill="#C3955F"/>
<path d="M37.8735 45.8058C38.2364 46.3472 39.8259 46.9176 40.3725 46.4206C41.2154 45.6546 39.9696 44.0632 39.3496 43.6275L37.8735 45.8058Z" fill="#C3955F"/>
<path d="M19.48 39.5461C18.755 39.2326 17.9299 39.8148 17.1983 39.5318C16.7914 39.3743 17.5641 38.5466 17.6735 38.4378C18.1395 37.9734 18.7579 37.7433 19.3083 37.4046C19.4047 37.3451 19.3677 37.1766 19.2422 37.2047C18.2154 37.4344 15.8946 38.4328 16.5094 39.8599C16.7374 40.3892 17.4654 40.4328 17.9521 40.4121C18.5141 40.3884 19.1319 40.2709 19.5408 39.8832C19.6522 39.7774 19.6202 39.6067 19.48 39.5461Z" fill="#E9DACB"/>
<path d="M20.5343 41.8466C20.2509 41.5138 19.4224 41.7805 19.0743 41.8396C18.5543 41.9281 17.903 41.9426 18.1354 41.2203C18.3037 40.6969 18.8537 40.3033 19.2803 39.9935C19.348 39.9443 19.3239 39.8246 19.2455 39.8008C18.2903 39.5124 17.2715 40.7934 17.3448 41.6819C17.4506 42.9636 19.0463 42.8488 19.9275 42.5649C20.1521 42.4926 20.8136 42.1747 20.5343 41.8466Z" fill="#E9DACB"/>
<path d="M21.9877 43.8211C21.6366 43.7085 21.3082 43.9459 20.9822 44.0502C20.5959 44.1738 20.1932 44.2367 19.789 44.1917C19.3151 44.1389 19.3463 43.7234 19.4849 43.3829C19.5808 43.1477 19.7443 42.9363 19.9005 42.7387C20.0446 42.5563 20.1213 42.3435 20.2824 42.169C20.358 42.0872 20.2845 41.9615 20.1752 42.0043C19.5734 42.2405 19.1463 42.6019 18.8215 43.168C18.5209 43.692 18.5364 44.2956 19.0023 44.7153C19.4688 45.1356 20.1237 45.1376 20.7075 45.0315C21.1396 44.9531 22.0613 44.7628 22.1926 44.2606C22.2384 44.0855 22.1775 43.882 21.9877 43.8211Z" fill="#E9DACB"/>
<path d="M24.2627 45.4643C23.4863 45.8509 22.5143 46.8245 21.6025 46.2177C21.0419 45.8446 21.7294 44.7655 22.0154 44.429C22.1117 44.3158 21.9827 44.1298 21.8443 44.1649C20.7918 44.432 20.2941 45.8215 20.8967 46.7117C21.272 47.2662 22.1401 47.3481 22.7321 47.2435C23.4783 47.1118 24.2332 46.5512 24.7018 45.9798C24.9297 45.7018 24.5643 45.3141 24.2627 45.4643Z" fill="#E9DACB"/>
<path d="M26.4686 47.2116C26.4518 47.1329 26.3779 47.0482 26.2898 47.0513C25.6463 47.0752 25.2323 47.8491 24.6289 48.0473C24.2045 48.1867 24.0199 47.7311 24.0188 47.372C24.0178 47.1188 24.1255 46.8728 24.221 46.6438C24.3232 46.3988 24.3553 46.1374 24.4719 45.8908C24.4908 45.8505 24.435 45.8188 24.4044 45.8441C24.1494 46.0534 23.8463 46.2401 23.6575 46.5125C23.4616 46.7945 23.3486 47.1146 23.2867 47.4493C23.1785 48.0365 23.5924 48.6601 24.1272 48.8692C24.6396 49.0696 25.2294 48.7796 25.6357 48.4841C25.995 48.2224 26.5761 47.7132 26.4686 47.2116Z" fill="#E9DACB"/>
<path d="M29.1038 47.4575C29.0838 47.3482 28.9672 47.2613 28.8554 47.2889C28.2627 47.4348 27.9929 48.1931 27.5584 48.5652C27.2945 48.7911 27.0409 48.7481 26.7677 48.5641C26.4306 48.337 26.454 47.6587 26.457 47.3019C26.4579 47.1847 26.3116 47.0767 26.2125 47.1769C25.3228 48.0757 25.9288 49.6681 27.2547 49.6288C27.8194 49.6121 28.2313 49.2265 28.5674 48.8101C28.8478 48.4627 29.1894 47.926 29.1038 47.4575Z" fill="#E9DACB"/>
<path d="M31.0832 48.1232C31.0674 48.0147 30.9301 47.942 30.8327 47.9971C30.5237 48.1716 30.4006 48.3588 30.2204 48.6663C30.0791 48.9073 29.965 49.2223 29.7033 49.3577C29.414 49.5075 29.0557 49.1937 28.9512 48.9569C28.8128 48.6436 28.8105 48.1365 28.8287 47.7982C28.8359 47.6672 28.6863 47.5917 28.5844 47.6732C28.1071 48.0548 28.0109 48.6461 28.1463 49.2228C28.2954 49.8572 28.835 50.2576 29.4678 50.3218C30.5557 50.432 31.2136 49.0147 31.0832 48.1232Z" fill="#E9DACB"/>
<path d="M33.085 48.0122C33.0374 47.9729 32.9459 47.9642 32.8927 47.9968C32.4244 48.285 32.5985 49.1138 32.4053 49.5705C32.2595 49.9143 31.8633 49.7001 31.6541 49.5505C31.2816 49.2846 30.8904 48.7993 30.7914 48.352C30.7683 48.2474 30.6251 48.2607 30.6093 48.362C30.4521 49.3703 31.5009 50.9121 32.642 50.3543C33.0741 50.143 33.2015 49.5874 33.2693 49.1586C33.3336 48.7535 33.3821 48.259 33.085 48.0122Z" fill="#E9DACB"/>
<path d="M34.8653 47.5575C34.7959 47.5287 34.7294 47.5633 34.6844 47.6146C34.2562 48.1038 34.6681 48.8839 34.3059 49.4344C34.0002 49.8988 33.1686 48.329 33.0154 48.1352C32.9533 48.0565 32.8432 48.1102 32.8288 48.1954C32.6658 49.152 33.4856 50.6795 34.6377 50.1595C35.1184 49.9427 35.2555 49.3341 35.2985 48.8653C35.3396 48.4161 35.3566 47.761 34.8653 47.5575Z" fill="#E9DACB"/>
<path d="M37.2022 47.9979C37.181 47.543 37.1601 47.0059 36.6947 46.7965C36.6408 46.7721 36.5539 46.7856 36.5125 46.8293C36.0651 47.3014 36.4893 47.9771 36.3488 48.5509C36.2649 48.8938 35.895 48.8588 35.6459 48.6915C35.299 48.4586 35.1344 48.0204 34.785 47.7859C34.7625 47.7707 34.7324 47.7852 34.7296 47.8119C34.67 48.3865 34.9115 48.9426 35.3429 49.3167C35.7368 49.658 36.4644 49.6697 36.8388 49.3022C37.1795 48.9678 37.2229 48.4483 37.2022 47.9979Z" fill="#E9DACB"/>
<path d="M38.4401 45.8991C38.3705 45.894 38.2774 45.926 38.2427 45.9923C38.0866 46.2896 38.2606 46.5469 38.3071 46.8538C38.3451 47.1054 38.2919 47.3431 38.1396 47.5451C37.7627 48.0453 36.9764 47.576 36.6548 47.2686C36.5602 47.1783 36.3921 47.2683 36.4548 47.3988C36.6544 47.815 36.8981 48.154 37.349 48.3034C37.7218 48.4268 38.1554 48.3556 38.4712 48.1246C38.8162 47.8722 38.993 47.4916 39.0412 47.0739C39.087 46.6768 38.922 45.9347 38.4401 45.8991Z" fill="#E9DACB"/>
<path d="M40.7021 45.2012C40.5673 44.7589 40.2055 44.0173 39.7182 43.8834C39.3861 43.7922 39.0787 44.0936 39.2263 44.4272C39.3444 44.6941 39.585 44.9008 39.7242 45.1636C39.8903 45.4774 40.0341 45.8429 40.0161 46.2027C39.9947 46.6342 39.5417 46.4497 39.2862 46.349C38.9471 46.2154 38.6828 46.0495 38.3159 46.0169C38.246 46.0106 38.196 46.0859 38.2256 46.1485C38.6022 46.9406 40.0538 47.6713 40.6484 46.7205C40.9275 46.2745 40.8472 45.6766 40.7021 45.2012Z" fill="#E9DACB"/>
<path d="M26.7911 36.0554C26.233 35.6992 25.379 35.9331 24.8089 36.1682C24.3704 36.3489 23.7537 36.7932 23.8923 37.346C24.0094 37.8134 24.5853 37.9941 24.9941 38.0954C25.4691 38.2131 25.9033 38.2768 26.3188 37.9801C26.3943 37.9262 26.3852 37.7923 26.3075 37.7451C26.0601 37.5949 25.858 37.515 25.5695 37.4627C25.2413 37.403 24.8901 37.389 24.5995 37.2047C24.5083 37.1468 24.5326 37.2006 24.6091 37.0948C24.7698 36.8724 25.0718 36.753 25.3168 36.656C25.7906 36.4682 26.2982 36.492 26.7696 36.3233C26.8799 36.2839 26.8832 36.1141 26.7911 36.0554Z" fill="#E9DACB"/>
<path d="M27.5099 39.5609C27.006 39.2221 26.2971 39.4956 25.7323 39.3308C25.3355 39.2149 25.6196 38.9341 25.8302 38.7663C26.1251 38.5311 26.4314 38.3213 26.7219 38.079C26.8345 37.9853 26.735 37.8355 26.6095 37.8447C26.0385 37.8864 25.5429 38.0233 25.1024 38.4109C24.6821 38.7809 24.6129 39.3517 24.9465 39.7966C25.2279 40.1721 25.8436 40.2907 26.28 40.3002C26.7115 40.3098 27.3097 40.3044 27.5697 39.8959C27.6391 39.7868 27.622 39.6363 27.5099 39.5609Z" fill="#E9DACB"/>
<path d="M29.5868 40.5343C29.322 40.4323 28.9379 40.6193 28.7034 40.739C28.3357 40.9268 27.8886 41.1409 27.4685 41.158C26.9182 41.1804 26.9895 40.7277 27.2383 40.4103C27.3755 40.2353 27.5742 40.0999 27.7703 40.0011C27.9034 39.934 28.0477 39.9135 28.1233 39.7692C28.1706 39.6791 28.1695 39.6036 28.1111 39.5189C27.7987 39.0641 26.9874 39.7238 26.7438 39.9616C26.2729 40.4219 26.1297 41.0363 26.5558 41.5715C26.9823 42.1069 27.7814 42.0075 28.3473 41.8177C28.7764 41.6737 29.6737 41.2814 29.7258 40.7507C29.7353 40.6556 29.674 40.5678 29.5868 40.5343Z" fill="#E9DACB"/>
<path d="M30.6392 41.9967C30.375 42.1381 30.0735 42.2324 29.801 42.3693C29.55 42.4955 29.1911 42.7362 28.8895 42.6651C28.4456 42.5606 29.3117 41.267 29.4509 41.0479C29.5147 40.9475 29.463 40.7636 29.32 40.7704C28.7808 40.7959 28.392 41.3371 28.1563 41.7725C27.8708 42.3005 27.7625 42.9001 28.2641 43.3374C29.1173 44.0816 30.812 43.2147 30.8519 42.1424C30.8559 42.035 30.7431 41.941 30.6392 41.9967Z" fill="#E9DACB"/>
<path d="M32.5526 42.3372C32.3474 42.3763 32.2189 42.6021 32.1296 42.7681C32.0115 42.9872 31.8512 43.1786 31.6719 43.3493C31.4159 43.5928 30.8525 43.9581 30.7348 43.3912C30.6882 43.166 30.727 42.9072 30.7872 42.689C30.839 42.501 30.9418 42.3576 30.8667 42.1617C30.8441 42.1027 30.7719 42.056 30.7098 42.0541C30.3062 42.042 30.106 42.6723 30.0238 42.9846C29.8939 43.4778 30.036 43.9452 30.409 44.2839C30.774 44.6154 31.3603 44.5239 31.7573 44.3248C32.2187 44.0934 32.5615 43.6637 32.7919 43.2126C32.9132 42.975 33.0505 42.2425 32.5526 42.3372Z" fill="#E9DACB"/>
<path d="M35.3037 42.4515C35.2558 42.3421 35.1275 42.3381 35.0406 42.3961C34.4815 42.7682 34.6004 43.7281 33.9817 44.1142C33.6937 44.2939 33.3264 44.183 33.1684 43.8959C33.0063 43.6013 32.8453 43.2063 32.7611 42.8833C32.7381 42.7951 32.6201 42.7828 32.5842 42.8691C32.3757 43.3718 32.2543 43.7961 32.4989 44.3261C32.7302 44.8275 33.3395 45.1471 33.8781 45.0142C34.3988 44.8857 34.7662 44.3756 34.9879 43.9197C35.1949 43.4939 35.5045 42.9096 35.3037 42.4515Z" fill="#E9DACB"/>
<path d="M37.168 42.2304C37.1171 42.2173 37.0542 42.2166 37.014 42.2582C36.7908 42.4889 36.8509 42.8061 36.7597 43.0951C36.6851 43.3313 36.5015 43.487 36.2805 43.5813C35.7224 43.8196 35.3295 43.3319 35.1143 42.8657C35.0859 42.8041 34.9939 42.8105 34.971 42.873C34.8087 43.3142 34.8208 43.835 35.1917 44.1696C35.5274 44.4724 36.0067 44.549 36.438 44.4463C36.8957 44.3374 37.2383 43.9635 37.441 43.5594C37.6274 43.1878 37.6874 42.3628 37.168 42.2304Z" fill="#E9DACB"/>
<path d="M38.5741 41.5624C38.4742 41.3753 38.1682 41.0678 37.965 41.3217C37.7779 41.5554 37.9553 41.9458 38.0047 42.209C38.0443 42.4195 38.025 42.915 37.7482 42.9668C37.6482 42.9855 37.491 42.8923 37.3977 42.8625C37.2642 42.8198 37.1375 42.7535 37.0126 42.691C36.8732 42.6213 36.7833 42.8138 36.8564 42.9157C37.1731 43.3568 37.6804 43.8478 38.2522 43.4823C38.8709 43.0869 38.8888 42.1513 38.5741 41.5624Z" fill="#E9DACB"/>
<path d="M27.5417 36.6056C27.2009 36.2552 26.7699 36.3203 26.3268 36.3791C25.9284 36.4318 25.513 36.5038 25.1819 36.7459C24.8928 36.9574 25.054 37.3411 25.313 37.4737C25.6437 37.6431 26.0883 37.58 26.4413 37.5373C26.8717 37.4852 27.2654 37.4805 27.5668 37.126C27.6837 36.9884 27.6652 36.7324 27.5417 36.6056Z" fill="#936543"/>
<path d="M28.3123 37.6703C27.948 37.5985 27.6105 37.7565 27.279 37.8909C26.9455 38.0262 26.5948 38.2286 26.2778 38.4022C25.8416 38.6412 25.9906 39.2116 26.4452 39.2993C26.8452 39.3765 27.2182 39.2087 27.5764 39.0476C27.9135 38.8959 28.2926 38.6932 28.5596 38.4352C28.8504 38.1545 28.6853 37.744 28.3123 37.6703Z" fill="#936543"/>
<path d="M29.5329 39.3925C29.1471 39.2432 28.7755 39.4197 28.4527 39.6263C28.1153 39.8423 27.6477 40.0797 27.5674 40.5011C27.5389 40.6505 27.6588 40.7656 27.7759 40.8259C28.1221 41.0036 28.5929 40.7043 28.8827 40.5189C29.2116 40.3084 29.5558 40.0956 29.6768 39.7009C29.7157 39.5735 29.6598 39.4416 29.5329 39.3925Z" fill="#936543"/>
<path d="M30.4648 40.6804C30.3104 40.6911 30.198 40.6977 30.048 40.7771C29.8872 40.8622 29.7588 41.0102 29.6309 41.1368C29.5019 41.2646 29.3753 41.3941 29.2693 41.5418C29.1547 41.7013 29.1017 41.8449 29.0676 42.0376C29.0209 42.3009 29.3146 42.5397 29.5621 42.4811C29.8894 42.4036 30.1053 42.1984 30.3412 41.9709C30.4398 41.8755 30.5425 41.7844 30.6438 41.6917C30.8017 41.5471 30.8481 41.3856 30.9033 41.1952C30.992 40.8892 30.7659 40.6597 30.4648 40.6804Z" fill="#936543"/>
<path d="M32.0279 42.2229C32.0688 41.8751 31.6515 41.7103 31.4008 41.9023C31.5021 41.8727 31.4831 41.8799 31.3437 41.9241C31.2436 41.9725 31.1805 42.0507 31.1176 42.1383C31.0209 42.2733 30.9441 42.4098 30.8781 42.5625C30.7679 42.8177 30.6853 43.0528 30.7229 43.3347C30.7407 43.4677 30.8544 43.597 30.9811 43.6377C31.0134 43.6485 31.0467 43.6559 31.0808 43.6601C31.4003 43.6929 31.5422 43.3611 31.6764 43.136C31.7607 42.9946 31.8516 42.8634 31.922 42.7137C31.9514 42.651 31.9779 42.5866 32.0061 42.5233C32.0544 42.4147 32.0179 42.3084 32.0279 42.2229Z" fill="#936543"/>
<path d="M34.2445 41.9014C34.1226 41.595 33.6529 41.5702 33.4809 41.8402C33.1416 42.3729 33.1013 43.0269 33.145 43.6437C33.1838 44.189 34.0785 44.2468 34.2153 43.7295C34.3735 43.131 34.4791 42.4899 34.2445 41.9014Z" fill="#936543"/>
<path d="M36.4937 43.4037C36.472 43.0598 36.3604 42.7236 36.2931 42.3855C36.235 42.0937 36.1493 41.7557 35.9258 41.5465C35.7999 41.4289 35.6121 41.4478 35.5405 41.616C35.4199 41.8991 35.4486 42.2411 35.4784 42.5413C35.5166 42.9243 35.5327 43.3165 35.729 43.6563C35.9699 44.0734 36.5224 43.8578 36.4937 43.4037Z" fill="#936543"/>
<path d="M37.9572 41.9227C37.8507 41.5956 37.6705 41.0698 37.26 41.0441C37.1549 41.0375 37.0595 41.0984 37.0219 41.1969C36.9104 41.4893 37.1009 41.8902 37.1641 42.1817C37.2502 42.578 37.2881 42.9607 37.6784 43.1676C37.7717 43.2171 37.8896 43.2164 37.9543 43.1184C38.2126 42.727 38.0935 42.3409 37.9572 41.9227Z" fill="#936543"/>
<path d="M19.9473 38.0875C19.6451 37.7879 19.1081 37.8736 18.7383 37.9939C18.2435 38.155 17.7348 38.3249 17.3825 38.7231C16.9968 39.1589 17.6066 39.6312 18.0302 39.4839C18.3891 39.3589 18.7125 39.128 19.0622 38.975C19.3531 38.8476 19.7769 38.7067 19.9641 38.4356C20.0323 38.3368 20.0376 38.177 19.9473 38.0875Z" fill="#936543"/>
<path d="M20.4597 40.0283C19.7082 39.962 18.5109 40.4504 18.1394 41.1366C17.9403 41.5045 18.1748 42.1618 18.6982 41.9981C19.0808 41.8784 19.3884 41.6448 19.7263 41.4345C20.0584 41.2278 20.4197 41.0768 20.713 40.8113C20.9991 40.5522 20.8544 40.0631 20.4597 40.0283Z" fill="#936543"/>
<path d="M21.8254 42.3433C21.373 41.9981 20.8325 42.3644 20.4505 42.6346C20.0956 42.8857 19.6715 43.1832 19.4279 43.5476C19.1535 43.958 19.5076 44.4428 19.9714 44.3855C20.3935 44.3333 20.7049 44.0114 21.0105 43.7451C21.1376 43.6343 21.2682 43.5181 21.4124 43.4298C21.609 43.3095 21.8219 43.2406 21.9481 43.0318C22.0922 42.7933 22.0501 42.5148 21.8254 42.3433Z" fill="#936543"/>
<path d="M23.6295 44.3459C23.1493 44.0195 22.5704 44.4412 22.2201 44.7744C21.8531 45.1234 21.3571 45.61 21.4348 46.167C21.4753 46.458 21.7638 46.5947 22.0269 46.5689C22.4434 46.5282 22.7635 46.0683 23.0122 45.7827C23.0912 45.6919 23.2527 45.5393 23.378 45.4104C23.4243 45.3629 23.4748 45.3204 23.5271 45.2799C23.5479 45.2662 23.5801 45.245 23.6255 45.2147C23.6966 45.1542 23.7154 45.1175 23.7551 45.0506C23.8947 44.816 23.8697 44.5092 23.6295 44.3459Z" fill="#936543"/>
<path d="M25.2972 45.725C25.0329 45.8166 24.8284 46.0963 24.6625 46.3101C24.4625 46.5678 24.2704 46.8229 24.2483 47.161C24.2253 47.5126 24.5663 47.6999 24.8709 47.5877C25.1546 47.4832 25.3359 47.2425 25.5025 47.0036C25.6773 46.7529 25.8993 46.4624 25.9148 46.1483C25.9322 45.7955 25.6037 45.6188 25.2972 45.725Z" fill="#936543"/>
<path d="M28.0591 46.5671C27.9972 46.4168 27.8159 46.29 27.6524 46.2884C27.0549 46.2824 26.8362 46.8879 26.6758 47.375C26.5245 47.8344 26.4408 48.6367 27.0049 48.8539C27.4224 49.0146 27.7149 48.4718 27.7886 48.1514C27.8492 47.888 27.8937 47.6202 27.9747 47.362C28.0688 47.0618 28.1922 46.8901 28.0591 46.5671Z" fill="#936543"/>
<path d="M30.0021 47.2635C29.8878 47.1179 29.6497 47.1016 29.5134 47.2243C29.282 47.4329 29.2109 47.7482 29.1663 48.0481C29.1204 48.3572 29.0283 48.6989 29.2041 48.9828C29.3349 49.194 29.6702 49.3503 29.8775 49.1251C30.1232 48.8583 30.142 48.579 30.1741 48.2313C30.2048 47.8983 30.2171 47.5372 30.0021 47.2635Z" fill="#936543"/>
<path d="M32.4658 48.6784C32.4469 48.2999 32.4554 47.8895 32.3273 47.5325C32.2138 47.2165 31.6711 47.1639 31.5111 47.4671C31.2125 48.0329 31.123 49.3275 31.7736 49.7039C31.9626 49.8133 32.1814 49.7879 32.317 49.6069C32.5295 49.3234 32.4825 49.01 32.4658 48.6784Z" fill="#936543"/>
<path d="M34.0546 48.1145C33.9536 47.8722 33.8705 47.6025 33.8089 47.3471C33.7203 46.9792 33.2476 47.0378 33.1787 47.3815C33.0638 47.954 33.1075 48.9685 33.7696 49.2019C33.9954 49.2814 34.2857 49.125 34.2893 48.8681C34.2934 48.5832 34.1608 48.3691 34.0546 48.1145Z" fill="#936543"/>
<path d="M36.0182 47.3755C35.8966 47.0697 35.7556 46.7955 35.4314 46.6765C35.2064 46.5939 34.9796 46.795 35.0203 47.0265C35.0611 47.2592 35.1054 47.5504 35.1885 47.8017C35.2841 48.0911 35.3817 48.5287 35.7218 48.6233C35.9272 48.6804 36.1053 48.5967 36.1936 48.4032C36.3248 48.1156 36.1263 47.6476 36.0182 47.3755Z" fill="#936543"/>
<path d="M37.9956 46.5097C37.8599 46.2753 37.7688 45.9122 37.5189 45.7772C37.3131 45.6659 37.0795 45.7188 36.984 45.9464C36.8706 46.2165 37.0201 46.522 37.1065 46.7809C37.2181 47.1158 37.4303 47.4327 37.8261 47.3794C37.9947 47.3566 38.1171 47.1511 38.1294 46.9973C38.1422 46.8382 38.0737 46.6445 37.9956 46.5097Z" fill="#936543"/>
<path d="M39.3701 45.0105C39.19 44.8513 38.9159 44.5925 38.6597 44.5939C38.5567 44.5946 38.4461 44.6434 38.4143 44.7515C38.3273 45.0464 38.5424 45.3995 38.721 45.623C38.9436 45.9015 39.2188 46.2805 39.6245 46.1945C39.7964 46.1581 39.9517 46.008 39.9566 45.824C39.9672 45.4262 39.6349 45.2443 39.3701 45.0105Z" fill="#936543"/>
</svg>
