<?xml version="1.0" encoding="utf-8"?>
<!-- Generator: Adobe Illustrator 27.5.0, SVG Export Plug-In . SVG Version: 6.00 Build 0)  -->
<svg version="1.1" id="Capa_1" xmlns="http://www.w3.org/2000/svg" xmlns:xlink="http://www.w3.org/1999/xlink" x="0px" y="0px"
	 viewBox="0 0 1984 2269" style="enable-background:new 0 0 1984 2269;" xml:space="preserve">
<g>
	<path style="fill:#D2845B;" d="M1513.8,1600.608h57.225l0.024-0.268c10.759,0.828,21.45-0.168,30.591-5.582
		c5.848-3.462,10.597-8.504,14.87-13.788c8.255-10.205,15.158-21.868,17.668-34.753c3.551-18.209-2.202-37.53-13.322-52.379
		c-9.121-12.174-23.396-17.981-38.711-18.805h-0.005c-2.561-0.137-5.149-0.134-7.748,0h-47.357l67.12-636.806
		c59.365,44.268,98.233,73.265,98.233,73.265l97.54-122.678c0,0-667.658-562.755-798.17-634.676
		c-130.515,71.921-798.171,634.676-798.171,634.676l97.542,122.678c0,0,38.867-28.998,98.232-73.265l89.412,848.308H275.807v135.186
		h648.358v292.839h135.186v-292.839h648.358v-135.186h-202.967L1513.8,1600.608z"/>
	<path style="fill:#DF9D74;" d="M991.758,154.139c-130.514,71.92-798.171,634.676-798.171,634.676l97.541,122.678
		c0,0,681.687-508.562,700.63-521.214c18.943,12.652,700.631,521.214,700.631,521.214l97.54-122.678
		C1789.928,788.815,1122.271,226.058,991.758,154.139z"/>
	<rect x="275.806" y="1686.535" style="fill:#DF9D74;" width="1431.903" height="135.186"/>
	<rect x="924.164" y="1821.723" style="fill:#B8633B;" width="135.186" height="292.837"/>
	<path style="fill:#B8633B;" d="M1380.036,1149.74c1.412-7.245,2.518-14.523,3.43-21.817c3.681,2.34,10.071,0.682,10.375-5.137
		c4.516-86.885-10.053-176.914-57.761-251.113c-20.815-32.372-47.286-61.066-78.743-83.334
		c-35.59-25.194-77.105-39.843-119.354-49.393c-52.168-11.791-105.877-11.923-157.959,0.411c-2.231,0.528-3.515,1.881-4.141,3.489
		c-21.554,3.81-42.905,9.165-63.788,15.831c-1.239-0.643-2.705-0.944-4.446-0.473c-62.855,17.068-121.495,53.161-167.719,100.996
		c-17.658,17.368-33.177,36.17-45.677,56.4c-2.865,4.636-5.408,9.436-8.04,14.189c-17.18,29.314-30.178,60.846-37.628,93.749
		c-0.435,1.921-0.028,3.554,0.812,4.862c-3.724,17.182-6.29,34.62-7.675,52.201c-1.128,0.745-2.042,1.896-2.375,3.701
		c-19.907,108.306,15.722,222.781,94.093,300.279c4.412,4.361,10.592,0.408,11.03-4.315c0.807,0.725,1.508,1.557,2.328,2.27
		c26.682,23.204,58.79,37.967,92.68,48.697c-1.204,3.236-0.25,7.306,4.04,8.479c45.118,12.328,90.936,21.684,137.293,27.937
		c40.775,5.499,80.828,7.059,121.036-2.88c12.76-3.155,25.435-6.838,37.939-11.002c17.363-5.143,34.162-12.142,50.146-21.48
		c0.415-0.23,0.857-0.404,1.271-0.637c26.655-15.002,49.612-35.259,70.935-57.004c2.005-2.047,2.161-4.447,1.37-6.506
		c4.727-5.45,9.38-10.96,13.901-16.552c3.144-3.886,6.248-7.815,9.318-11.775c1.512,0.043,3.075-0.526,4.431-2.029
		c32.554-36.105,57.358-78.424,72.965-124.465c0.756-2.231,0.235-4.043-0.862-5.405
		C1370.422,1189.039,1376.155,1169.648,1380.036,1149.74z"/>
	<path style="fill:#591516;" d="M1025.947,744.809c-14.416,1.471-28.648,3.753-42.482,7.029c-5.879,1.393-9.227-4.757-7.581-8.992
		c-21.554,3.81-42.905,9.165-63.788,15.831c4.498,2.339,5.292,10.298-1.004,12.008c-119.16,32.357-222.587,135.125-250.025,256.294
		c-1.405,6.207-8.964,5.633-11.668,1.422c-3.724,17.182-6.29,34.62-7.675,52.201c3.996-2.643,11.272,0.791,10.105,7.141
		c-19.062,103.712,15.851,213.609,90.766,287.685c1.518,1.502,2.028,3.213,1.877,4.839c0.807,0.725,1.508,1.557,2.328,2.27
		c26.682,23.204,58.79,37.967,92.68,48.697c1.049-2.828,3.728-5.028,7.48-4.002c42.031,11.484,84.685,20.456,127.826,26.619
		c11.775,1.684,23.505,3.043,35.209,3.981c23.273-5.348,45.683-13.729,66.672-26.16c33.964-20.114,61.545-49.39,86.365-80.083
		c47.941-59.283,88.04-127.018,102.625-201.85c20.615-105.765-12.789-217.995-77.387-304.238
		C1147.982,791.718,1090.361,759.341,1025.947,744.809z"/>
	<path style="fill:#B8633B;" d="M1620.855,1493.838c-9.119-12.174-23.396-17.981-38.71-18.805l0,0h-0.006
		c-2.561-0.138-5.149-0.134-7.748,0h-568.264c-23.239,1.206-47.255,13.034-58.279,30.874c-12.518,20.257-12.083,47.328-0.476,68.119
		c2.537,4.543,5.595,8.857,9.521,12.273c7.969,6.93,18.717,9.561,29.081,11.598c7.42,1.459,22.8,2.712,22.8,2.712h562.25
		l0.023-0.268c10.76,0.828,21.451-0.167,30.592-5.581c5.847-3.463,10.596-8.504,14.869-13.788
		c8.254-10.206,15.158-21.868,17.669-34.752C1637.728,1528.009,1631.977,1508.686,1620.855,1493.838z"/>
	<path style="fill:#DF9D74;" d="M1516.109,1505.906L1516.109,1505.906c-12.517,20.257-12.082,47.328-0.475,68.119
		c2.536,4.544,5.595,8.858,9.521,12.273c7.969,6.93,18.718,9.561,29.081,11.598c15.904,3.126,33.457,5.121,47.404-3.139
		c5.847-3.463,10.596-8.503,14.869-13.787c8.254-10.207,15.158-21.868,17.669-34.752c3.549-18.209-2.202-37.532-13.324-52.38
		C1596.576,1461.424,1535.742,1474.136,1516.109,1505.906z"/>
	<path style="fill:#AD5635;" d="M630.815,1606.424c-3.788-54.738-7.86-109.457-11.916-164.177
		c-11.643-157.088-23.516-314.158-35.04-471.255c-6.09-83.019-12.114-166.044-17.804-249.091c-0.552-8.056-13.172-8.118-12.616,0
		c10.426,152.158,21.815,304.25,33.155,456.342c9.988,133.955,20.238,267.894,29.757,401.885
		c1.424,20.042,2.845,40.085,4.108,60.137c0.365,5.802,0.744,11.606,1.005,17.413c0.063,1.407-0.24,3.469,0.187,4.811
		c0.021,0.066,0.016,0.092,0.033,0.153c0.327-0.861,1.119-1.979,3.008-3.184c-1.673,1.068-2.538,2.535-2.816,4.071
		c0.015,0.172-0.009,0.256-0.028,0.356c-0.555,4.635,4.157,9.694,9.211,6.467c5.457-3.485,2.956-14.239,2.656-19.516
		C632.873,1636.024,631.838,1621.223,630.815,1606.424z"/>
	<path style="fill:#AD5635;" d="M621.876,1663.527c-0.02-0.223-0.089-0.531-0.192-0.886c-0.469,1.234,0.049,1.846,0.164,1.243
		C621.863,1663.764,621.854,1663.647,621.876,1663.527z"/>
	<path style="fill:#AD5635;" d="M760.892,818.82c-1.591-71.872-5.908-143.738-10.059-215.501c-0.467-8.071-13.086-8.124-12.616,0
		c4.152,71.763,8.468,143.63,10.059,215.501C748.455,826.927,761.072,826.956,760.892,818.82z"/>
	<path style="fill:#AD5635;" d="M816.548,1439.933c-0.525-8.062-13.146-8.12-12.616,0c4.229,64.892,8.458,129.784,12.686,194.677
		l1.826,28.024c0.525,8.061,13.146,8.119,12.616,0l-12.685-194.677C817.765,1458.615,817.157,1449.274,816.548,1439.933z"/>
	<path style="fill:#AD5635;" d="M988.239,687.512l2.615-266.291c0.08-8.121-12.537-8.127-12.616,0l-2.615,266.291
		C975.542,695.633,988.159,695.639,988.239,687.512z"/>
	<path style="fill:#AD5635;" d="M1011.062,1614.799c-0.184-3.402-2.768-6.308-6.308-6.308c-3.274,0-6.493,2.889-6.308,6.308
		c0.846,15.694,1.693,31.39,2.54,47.084c0.122,2.259,0.244,4.519,0.366,6.778c0.184,3.403,2.768,6.308,6.309,6.308
		c3.273,0,6.492-2.889,6.308-6.308c-0.846-15.695-1.693-31.389-2.54-47.084C1011.307,1619.317,1011.185,1617.058,1011.062,1614.799z
		"/>
	<path style="fill:#AD5635;" d="M1241.033,745.598c3.279-45.487,7.391-90.909,12.333-136.245c0.878-8.06-11.745-7.998-12.617,0
		c-4.942,45.336-9.054,90.758-12.333,136.245C1227.834,753.699,1240.452,753.662,1241.033,745.598z"/>
	<path style="fill:#AD5635;" d="M1443.915,777.782c-4.731,107.434-15.786,214.657-27.049,321.567
		c-10.243,97.237-21.494,194.37-33.424,291.415c-2.427,19.738-4.867,39.476-7.397,59.202c-1.029,8.03,11.596,7.955,12.616,0
		c7.14-55.677,13.824-111.415,20.351-167.166c13.026-111.258,25.284-222.633,35.281-334.208
		c5.094-56.848,9.727-113.781,12.238-170.81C1456.889,769.663,1444.271,769.682,1443.915,777.782z"/>
	<path style="fill:#AD5635;" d="M1354.167,1618.142c-3.768,0-5.875,2.913-6.308,6.308c-1.659,12.977-3.318,25.953-4.977,38.929
		l-0.706,5.528c-0.433,3.385,3.209,6.308,6.308,6.308c3.768,0,5.873-2.913,6.308-6.308c1.658-12.977,3.317-25.954,4.976-38.93
		c0.235-1.843,0.471-3.685,0.707-5.527C1360.908,1621.065,1357.267,1618.142,1354.167,1618.142z"/>
	<path style="fill:#AD5635;" d="M1206.243,1433.625c-1.631,0.073-3.323,0.609-4.461,1.848c-1.133,1.234-1.848,2.751-1.848,4.461
		v10.032c0,1.617,0.704,3.317,1.848,4.46c1.094,1.094,2.889,1.918,4.461,1.848c1.631-0.073,3.324-0.609,4.461-1.848
		c1.133-1.234,1.848-2.752,1.848-4.46v-10.032c0-1.618-0.704-3.317-1.848-4.461
		C1209.61,1434.378,1207.815,1433.554,1206.243,1433.625z"/>
	<path style="fill:#AD5635;" d="M1197.112,1616.1c-3.69,0.165-5.968,2.779-6.308,6.308c-1.289,13.372-1.532,26.815-0.727,40.226
		c0.197,3.287,2.76,6.466,6.308,6.308c3.248-0.146,6.52-2.781,6.308-6.308c-0.805-13.411-0.562-26.854,0.728-40.226
		C1203.738,1619.113,1200.292,1615.957,1197.112,1616.1z"/>
	<path style="fill:#AD5635;" d="M1381.061,1122.786c-0.423,8.114,12.195,8.091,12.616,0c4.537-87.124-10.145-177.439-58.181-251.729
		c-21.184-32.761-48.209-61.778-80.321-84.043c-35.15-24.371-75.98-38.6-117.435-47.955c-52.067-11.75-105.701-11.864-157.673,0.456
		c-7.897,1.872-4.553,14.04,3.354,12.165c83.424-19.776,180.42-6.644,253.919,38.728c67.053,41.393,111.067,112.019,130.697,187.201
		C1380.401,1024.963,1383.599,1074.035,1381.061,1122.786z"/>
	<path style="fill:#AD5635;" d="M1253.102,1365.61c-20.233,20.637-41.819,39.858-67.021,54.253
		c-27.279,15.582-57.409,25.131-87.782,32.621c-42.637,10.513-85.26,7.192-128.277,0.839
		c-41.536-6.134-82.611-14.864-123.107-25.934c-7.843-2.144-11.189,10.024-3.355,12.166c43.575,11.911,87.81,21.064,132.556,27.29
		c42.245,5.877,83.803,8.112,125.537-2.196c31.397-7.754,62.595-17.784,90.796-33.892c26.095-14.906,48.622-34.856,69.575-56.226
		C1267.712,1368.729,1258.798,1359.8,1253.102,1365.61z"/>
	<path style="fill:#AD5635;" d="M1351.802,1209.923c-14.879,43.889-38.647,84.411-69.68,118.827
		c-5.425,6.016,3.47,14.966,8.921,8.921c32.536-36.084,57.325-78.381,72.924-124.394
		C1366.581,1205.571,1354.399,1202.264,1351.802,1209.923z"/>
	<path style="fill:#AD5635;" d="M651.672,1087.7c1.46-7.938-10.696-11.341-12.166-3.354
		c-19.91,108.228,15.725,222.692,94.052,300.12c5.78,5.713,14.706-3.203,8.921-8.921
		C667.524,1301.45,632.585,1191.448,651.672,1087.7z"/>
	<path style="fill:#AD5635;" d="M907.694,758.362c-123.235,33.446-230.578,139.849-258.95,265.219
		c-1.789,7.906,10.371,11.282,12.165,3.354C688.34,905.72,791.841,802.881,911.048,770.527
		C918.874,768.403,915.553,756.228,907.694,758.362z"/>
	<path style="fill:#CC774B;" d="M508.141,1422.464c13.077-73.824,39.572-147.225,25.29-222.96
		c-1.502-7.969-13.664-4.595-12.165,3.353c14.962,79.343-17.183,156.668-28.183,234.318c-10.648,75.169-3.553,159.28,23.326,230.533
		c2.839,7.525,15.039,4.264,12.165-3.354C500.289,1589.372,494.208,1501.125,508.141,1422.464z"/>
	<path style="fill:#CC774B;" d="M491.584,1329.78c-1.566-154.706-20.776-308.929-57.181-459.299
		c-1.91-7.888-14.079-4.548-12.166,3.354c36.149,149.319,55.175,302.32,56.73,455.944
		C479.05,1337.894,491.666,1337.914,491.584,1329.78z"/>
	<path style="fill:#CC774B;" d="M487.247,894.385c7.025,10.363,16.15,21.378,28.996,24.258c11.565,2.594,24.927-1.267,30.612-12.306
		c3.711-7.206-7.172-13.596-10.894-6.368c-4.367,8.479-15.517,8.208-22.811,3.861c-9.757-5.815-16.03-16.892-21.703-26.359
		c-13.169-21.973-22.557-45.888-28.193-70.862c-1.786-7.917-13.952-4.566-12.165,3.354
		C457.846,839.911,469.996,868.94,487.247,894.385z"/>
	<path style="fill:#CC774B;" d="M502.048,834.796c9.031,10.574,24.121,17.161,37.851,12.76c7.701-2.468,4.409-14.654-3.355-12.165
		c-9.443,3.027-19.943-2.088-26.249-10.323c-7.631-9.966-10.028-23.5-12.37-35.721c-0.641-3.348-4.662-5.257-7.76-4.406
		c-3.504,0.963-5.049,4.402-4.406,7.76C488.605,807.55,491.962,822.988,502.048,834.796z"/>
	<path style="fill:#CC774B;" d="M517.797,781.581c2.021,2.5,4.942,4.309,7.987,5.279c3.57,1.138,7.434,0.686,10.709-1.073
		c2.911-1.563,4.063-5.839,2.263-8.63c-1.818-2.82-5.178-3.768-8.187-2.406c0.128-0.054,0.257-0.108,0.386-0.162
		c-0.273,0.108-0.558,0.153-0.835,0.228c-0.081,0.001-0.162,0.002-0.242,0c-0.26-0.06-0.518-0.13-0.771-0.211
		c-0.35-0.183-0.692-0.384-1.023-0.602c-0.294-0.266-0.575-0.549-0.842-0.842c-0.258-0.397-0.49-0.811-0.702-1.234
		c-0.396-1.104-0.681-2.235-0.878-3.39c-0.216-2.238-0.271-4.483-0.232-6.73c0.056-3.301-2.942-6.459-6.308-6.308
		c-3.466,0.155-6.247,2.771-6.308,6.308c-0.057,3.359,0.05,6.638,0.581,9.964C513.974,775.402,515.493,778.732,517.797,781.581z"/>
	<path style="fill:#CC774B;" d="M508.706,947.239c-8.494,65.493-6.745,131.705,4.824,196.714c1.42,7.98,13.581,4.598,12.165-3.355
		c-11.364-63.862-12.713-129.045-4.372-193.359C522.363,939.21,509.737,939.286,508.706,947.239z"/>
	<path style="fill:#CC774B;" d="M564.639,1336.293c1.916-7.887-10.247-11.252-12.166-3.355
		c-24.534,100.995-48.932,219.599,23.382,307.623c5.157,6.277,14.038-2.693,8.921-8.921
		C515.829,1547.715,541.374,1432.062,564.639,1336.293z"/>
	<path style="fill:#CC774B;" d="M581.4,1451.486c0.721-8.085-11.9-8.036-12.616,0c-3.659,41.049,1.387,82.585,14.724,121.578
		c2.613,7.638,14.804,4.358,12.166-3.355C582.655,1531.651,577.829,1491.552,581.4,1451.486z"/>
	<path style="fill:#CC774B;" d="M772.135,1583.441c-5.039-18.679-8.548-42.633-22.561-57.171
		c-13.631-14.141-34.657-11.857-48.871,0.151c-16.282,13.756-23.682,37.933-29.287,57.704c-7.29,25.72-10.348,52.561-9.284,79.259
		c0.322,8.092,12.94,8.133,12.617,0c-1.057-26.503,2.024-52.882,9.536-78.337c5.824-19.733,15.146-53.029,39.655-56.001
		c24.115-2.924,29.378,33.475,33.901,49.933c7.395,26.906,14.109,53.993,20.2,81.224c1.772,7.92,13.938,4.568,12.166-3.354
		C784.706,1632.255,778.7,1607.775,772.135,1583.441z"/>
	<path style="fill:#CC774B;" d="M751.664,1634.96c-2.279-6.743-4.507-13.505-6.841-20.228c-3.456-9.955-9.734-21.817-21.845-21.893
		c-11.833-0.074-18.57,11.534-21.512,21.507c-4.442,15.061-5.936,31.127-4.717,46.759c0.265,3.397,2.71,6.308,6.308,6.308
		c3.208,0,6.575-2.893,6.308-6.308c-0.926-11.885-0.293-23.825,2.258-35.48c1.061-4.846,2.151-9.926,4.562-14.311
		c1.42-2.584,3.615-5.504,5.984-5.833c2.807-0.391,4.984,1.774,6.664,4.403c2.618,4.096,3.994,8.694,5.538,13.26
		c1.973,5.834,3.945,11.669,5.918,17.504c1.052,3.112,2.104,6.224,3.156,9.335c0.45,1.329,0.899,2.659,1.348,3.988
		c-2.094,2.984-2.476,7.246,0.472,10.194c2.472,2.471,6.489,2.788,9.481,1.128c3.654-2.028,4.867-6.063,3.824-9.912
		C756.702,1648.49,753.952,1641.724,751.664,1634.96z"/>
	<path style="fill:#CC774B;" d="M727.236,1640.185c-1.632,0.073-3.324,0.608-4.461,1.847c-1.133,1.234-1.847,2.751-1.847,4.461
		v9.745c0,1.618,0.703,3.317,1.847,4.461c1.094,1.094,2.889,1.918,4.461,1.848c1.631-0.074,3.323-0.609,4.461-1.848
		c1.133-1.235,1.847-2.751,1.847-4.461v-9.745c0-1.618-0.703-3.317-1.847-4.461C730.602,1640.938,728.807,1640.114,727.236,1640.185
		z"/>
	<path style="fill:#CC774B;" d="M663.352,1325.917c-1.283-7.994-13.443-4.602-12.165,3.354
		c6.393,39.834,14.87,80.009,15.731,120.451c0.833,39.141-5.564,77.83-18.174,114.851c-2.624,7.702,9.558,11.009,12.165,3.353
		c12.945-38.004,19.48-78.03,18.625-118.205C678.65,1408.17,669.92,1366.836,663.352,1325.917z"/>
	<path style="fill:#CC774B;" d="M704.192,1387.623c6.966,69.773,69.352,119.052,75.493,188.553c0.708,8.025,13.331,8.099,12.616,0
		c-6.188-70.039-68.568-119.19-75.492-188.553C716.01,1379.619,703.385,1379.537,704.192,1387.623z"/>
	<path style="fill:#CC774B;" d="M769.967,1457.632c2.007,2.605,5.516,4.272,8.631,2.263c2.572-1.658,4.417-5.835,2.263-8.63
		c-8.266-10.73-15.129-22.468-20.423-34.936c-1.295-3.049-6.019-3.947-8.631-2.263c-3.171,2.044-3.648,5.368-2.263,8.631
		C754.839,1435.164,761.701,1446.902,769.967,1457.632z"/>
	<path style="fill:#CC774B;" d="M598.302,725.032c24.11,114.046,26.108,232.002,5.764,346.787
		c-1.407,7.94,10.748,11.347,12.165,3.354c20.759-117.118,18.84-237.117-5.763-353.495
		C608.789,713.74,596.625,717.099,598.302,725.032z"/>
	<path style="fill:#CC774B;" d="M674.029,799.693c10.925,3.174,21.242-4.305,27.814-12.324
		c15.548-18.972,17.448-45.208,19.892-68.616c3.229-30.92,4.78-61.979,4.805-93.065c0.007-8.118-12.609-8.131-12.616,0
		c-0.02,24.978-1.006,49.941-3.09,74.833c-1.797,21.455-2.494,45.134-10.769,65.319c-3.013,7.348-12.301,24.857-22.683,21.688
		c-8-2.443-13.119-18.948-16.112-25.613c-9.621-21.415-15.939-44.152-19.394-67.349c-1.191-8.003-13.35-4.602-12.165,3.354
		c4.064,27.29,12.273,53.749,24.508,78.493C658.597,785.268,663.628,796.672,674.029,799.693z"/>
	<path style="fill:#CC774B;" d="M671.508,722.737c1.745,2.208,5.391,2.213,7.645,0.986c11.583-6.305,13.938-20.782,16.156-32.558
		c2.846-15.12,4.453-30.469,4.813-45.848c0.19-8.122-12.426-8.119-12.616,0c-0.312,13.334-1.53,26.625-3.862,39.761
		c-1.023,5.761-2.06,11.604-3.755,17.211c-0.697,2.306-1.59,4.545-2.872,6.491c-3.954-6.505-6.457-13.783-7.583-21.35
		c-0.502-3.373-4.76-5.23-7.76-4.406c-3.612,0.993-4.909,4.377-4.405,7.76C659.033,702.642,664.109,713.373,671.508,722.737z"/>
	<path style="fill:#CC774B;" d="M708.027,808.287c-13.295,18.195-22.233,39.542-25.858,61.784c-0.547,3.359,0.873,6.789,4.406,7.76
		c3.012,0.828,7.209-1.024,7.76-4.406c3.478-21.339,11.83-41.314,24.586-58.77c2.011-2.753,0.465-7.035-2.263-8.631
		C713.463,804.156,710.044,805.528,708.027,808.287z"/>
	<path style="fill:#CC774B;" d="M952.684,463.475c2.141-7.842-10.027-11.189-12.165-3.354
		c-24.478,89.661-24.01,184.598,1.383,274.005c2.214,7.798,14.391,4.483,12.165-3.354
		C929.27,643.464,928.78,551.035,952.684,463.475z"/>
	<path style="fill:#CC774B;" d="M915.453,726.67c-8.127-22.346-15.442-45.219-24.667-67.136
		c-6.94-16.489-20.197-33.63-40.031-32.896c-18.326,0.678-30.309,17.337-37.701,32.277c-9.136,18.463-17.363,37.678-23.116,57.481
		c-6.549,22.547-9.211,45.864-9.322,69.298c-0.038,8.12,12.578,8.13,12.617,0c0.211-44.355,11.939-89.821,34.864-128.092
		c4.927-8.226,12.237-17.67,22.657-18.348c11.598-0.755,20.324,9.151,25.307,18.424c5.638,10.491,9.032,22.322,13.091,33.482
		c4.711,12.956,9.423,25.91,14.134,38.864C906.041,737.594,918.238,734.326,915.453,726.67z"/>
	<path style="fill:#CC774B;" d="M888.085,731.502c-2.673-12.069-7.968-23.465-15.484-33.276c-3.584-4.679-7.552-9.384-12.325-12.899
		c-5.931-4.366-13.06-3.485-17.322,2.577c-3.63,5.162-5.808,11.944-7.895,17.839c-2.098,5.926-3.78,11.998-5.035,18.159
		c-2.716,13.334-3.572,26.984-2.422,40.543c0.681,8.03,13.304,8.103,12.616,0c-1.807-21.307,1.353-42.923,9.829-62.611
		c0.533-1.236,1.092-2.463,1.672-3.679c0.197-0.415,1.039-1.672,1.398-2.454c0.517,0.722,1.691,1.479,2.246,2.015
		c3.419,3.298,6.538,6.895,9.219,10.818c5.486,8.023,9.238,16.842,11.337,26.322C877.674,742.779,889.84,739.426,888.085,731.502z"
		/>
	<path style="fill:#CC774B;" d="M863.669,736.316c-8.118,0-8.132,12.616,0,12.616C871.787,748.932,871.8,736.316,863.669,736.316z"
		/>
	<path style="fill:#CC774B;" d="M773.29,717.302c1.627,7.948,13.791,4.584,12.165-3.354c-7.937-38.763,14.016-73.878,33.489-105.431
		c19.24-31.176,35.36-63.68,47.528-98.268c2.7-7.674-9.484-10.974-12.166-3.354c-13.597,38.652-33.05,73.192-54.151,108.107
		C781.42,646.002,765.718,680.322,773.29,717.302z"/>
	<path style="fill:#CC774B;" d="M877.385,600.634c6.186-26.871,12.372-53.742,18.558-80.612c1.82-7.903-10.341-11.276-12.166-3.355
		c-6.186,26.871-12.372,53.742-18.558,80.613C863.401,605.183,875.562,608.555,877.385,600.634z"/>
	<path style="fill:#CC774B;" d="M774.073,617.102c1.615,0.368,3.427,0.289,4.861-0.635c1.331-0.858,2.568-2.167,2.899-3.77
		c0.839-4.055,1.677-8.11,2.516-12.165c0.345-1.669,0.244-3.357-0.636-4.861c-0.766-1.308-2.266-2.556-3.77-2.899
		c-1.615-0.368-3.428-0.288-4.861,0.636c-1.331,0.858-2.567,2.167-2.899,3.77c-0.838,4.056-1.676,8.11-2.516,12.166
		c-0.345,1.667-0.244,3.357,0.637,4.86C771.069,615.512,772.569,616.76,774.073,617.102z"/>
	<path style="fill:#CC774B;" d="M844.224,1487.174c8.431,53.492,11.935,107.622,10.695,161.755c-0.186,8.122,12.43,8.119,12.616,0
		c1.266-55.286-2.536-110.486-11.146-165.109C855.129,1475.822,842.97,1479.218,844.224,1487.174z"/>
	<path style="fill:#CC774B;" d="M927.792,1491.494c3.24-7.362-7.627-13.79-10.894-6.367c-12.039,27.356-14.417,57.534-5.569,86.222
		c9.284,30.104,30.151,60.161,21.202,92.898c-2.144,7.842,10.024,11.188,12.166,3.354c8.15-29.813-5.117-57.414-15.841-84.614
		C916.996,1552.906,914.512,1521.671,927.792,1491.494z"/>
	<path style="fill:#CC774B;" d="M968.43,1628.003c-3.417,0.154-6.308,2.772-6.308,6.308v14.617c0,1.618,0.704,3.317,1.848,4.461
		c1.094,1.094,2.889,1.919,4.46,1.848c3.418-0.153,6.308-2.771,6.308-6.308v-14.617c0-1.617-0.704-3.316-1.848-4.46
		C971.796,1628.756,970.001,1627.933,968.43,1628.003z"/>
	<path style="fill:#CC774B;" d="M893.781,1598.973c-3.563,0.979-4.973,4.387-4.406,7.76c2.613,15.529,3.159,31.363,1.921,47.054
		c-0.268,3.4,3.091,6.308,6.308,6.308c3.636,0,6.039-2.898,6.308-6.308c1.33-16.861,0.434-33.737-2.371-50.408
		C900.975,1600.017,896.825,1598.136,893.781,1598.973z"/>
	<path style="fill:#CC774B;" d="M894.843,1505.687c-0.815-2.33-1.475-4.704-1.945-7.128c-0.1-0.519-0.179-1.041-0.277-1.56
		c-0.035-0.186-0.037-0.171-0.054-0.249c-0.005-0.069,0.002-0.035-0.012-0.167c-0.13-1.227-0.245-2.452-0.299-3.685
		c-0.1-2.287-0.045-4.58,0.164-6.86c0.011-0.12,0.113-0.972,0.147-1.308c0.063-0.385,0.175-1.093,0.195-1.2
		c0.219-1.214,0.488-2.416,0.79-3.611c0.809-3.194-1.037-6.993-4.406-7.76c-3.277-0.746-6.893,0.984-7.759,4.406
		c-2.697,10.653-2.346,22.084,1.29,32.476c1.087,3.108,4.365,5.505,7.76,4.406C893.509,1512.453,896.01,1509.021,894.843,1505.687z"
		/>
	<path style="fill:#CC774B;" d="M1067.398,592.749c-2.468-47.962-13.141-103.949-61.203-126.63
		c-7.302-3.446-13.713,7.427-6.368,10.894c42.419,20.018,52.172,68.888,54.712,111.37c2.485,41.575-0.427,98.289-46.91,115.142
		c-7.574,2.746-4.305,14.943,3.354,12.166C1061.733,697.291,1069.823,639.884,1067.398,592.749z"/>
	<path style="fill:#CC774B;" d="M1016.482,656.228c17.857-38.441,17.3-83.251-1.705-121.174c-3.637-7.259-14.525-0.878-10.893,6.368
		c16.827,33.577,17.54,74.347,1.704,108.438C1002.189,657.177,1013.061,663.592,1016.482,656.228z"/>
	<path style="fill:#CC774B;" d="M1069.301,485.267c29.692,65.469,23.965,139.972,6.142,207.827
		c-2.064,7.859,10.102,11.212,12.166,3.353c18.769-71.459,23.776-148.776-7.414-217.547
		C1076.847,471.517,1065.97,477.923,1069.301,485.267z"/>
	<path style="fill:#CC774B;" d="M1128.38,524.893c10.505,31.283,10.182,62.669,2.205,94.464
		c-7.205,28.724-17.364,56.86-16.85,86.868c0.138,8.11,12.755,8.135,12.616,0c-0.551-32.217,11.943-62.129,18.67-93.16
		c6.645-30.655,5.535-61.719-4.476-91.526C1137.974,513.881,1125.785,517.165,1128.38,524.893z"/>
	<path style="fill:#CC774B;" d="M1177.378,564.682c5.023,48.49,1.51,97.309-10.6,144.536c-2.018,7.869,10.147,11.226,12.166,3.353
		c12.374-48.252,16.184-98.335,11.051-147.89C1189.165,556.685,1176.54,556.601,1177.378,564.682z"/>
	<path style="fill:#CC774B;" d="M1227.089,639.523c-0.766-1.308-2.266-2.556-3.77-2.899c-3.074-0.701-7.146,0.932-7.76,4.406
		l-4.328,24.46c-0.302,1.707-0.268,3.316,0.636,4.86c0.766,1.309,2.266,2.557,3.77,2.899c3.074,0.701,7.144-0.932,7.76-4.406
		l4.328-24.459C1228.027,642.677,1227.994,641.068,1227.089,639.523z"/>
	<path style="fill:#CC774B;" d="M1069.194,1623.015c-1.159-3.079-4.312-5.521-7.76-4.406c-3.009,0.974-5.651,4.454-4.406,7.76
		c4.891,12.987,9.782,25.973,14.672,38.96c1.159,3.078,4.312,5.521,7.76,4.406c3.009-0.974,5.652-4.454,4.406-7.76
		C1078.976,1648.988,1074.085,1636.001,1069.194,1623.015z"/>
	<path style="fill:#CC774B;" d="M1156.025,1620.694c-3.418,0.153-6.308,2.771-6.308,6.308v24.363c0,3.3,2.902,6.461,6.308,6.308
		c3.417-0.153,6.308-2.771,6.308-6.308v-24.363C1162.333,1623.702,1159.432,1620.541,1156.025,1620.694z"/>
	<path style="fill:#CC774B;" d="M1127.994,1639.615c-0.314-1.346-0.88-2.662-1.502-3.886c-0.645-1.269-1.561-2.432-2.506-3.483
		c-1.047-1.164-2.929-1.848-4.461-1.848c-1.547,0-3.395,0.688-4.46,1.848c-1.104,1.203-1.923,2.78-1.848,4.461
		c0.071,1.59,0.649,2.927,1.643,4.142c-0.1-0.129-0.2-0.258-0.299-0.387c0.376,0.489,0.642,1.042,0.926,1.586
		c0.122,0.371,0.223,0.746,0.306,1.128c0.02,0.415,0.031,0.83,0.004,1.245c-0.03,0.12-0.042,0.244-0.075,0.363
		c-0.441,1.571-0.187,3.455,0.635,4.861c0.766,1.308,2.267,2.556,3.77,2.899c1.615,0.368,3.427,0.287,4.861-0.637
		c1.387-0.894,2.445-2.152,2.899-3.769c0.122-0.433,0.216-0.869,0.283-1.313c0.145-0.969,0.308-1.955,0.327-2.94
		c0.008-0.448-0.013-0.896-0.062-1.341C1128.325,1641.57,1128.217,1640.573,1127.994,1639.615z"/>
	<path style="fill:#CC774B;" d="M1364.657,1299.725c-52.53,31.998-87.338,88.267-93.005,149.438c-0.749,8.081,11.872,8.03,12.617,0
		c5.244-56.611,38.267-109.007,86.755-138.544C1377.949,1306.401,1371.616,1295.486,1364.657,1299.725z"/>
	<path style="fill:#CC774B;" d="M1348.254,1374.82c-3.102-1.814-6.726-0.573-8.631,2.263
		c-12.668,18.854-21.011,40.565-24.117,63.068c-0.465,3.37,0.817,6.774,4.406,7.759c2.947,0.81,7.291-1.009,7.76-4.406
		c2.977-21.567,10.702-41.982,22.846-60.055C1352.418,1380.622,1351.064,1376.464,1348.254,1374.82z"/>
	<path style="fill:#CC774B;" d="M1350.319,1426.041c-1.616-0.368-3.428-0.288-4.861,0.636c-1.302,0.84-2.627,2.178-2.899,3.77
		c-0.833,4.868-1.668,9.737-2.501,14.606c-0.293,1.714-0.273,3.308,0.636,4.861c0.766,1.308,2.266,2.556,3.77,2.899
		c1.615,0.368,3.427,0.288,4.86-0.635c1.302-0.84,2.627-2.179,2.899-3.77c0.834-4.869,1.668-9.738,2.502-14.607
		c0.293-1.714,0.272-3.308-0.636-4.86C1353.322,1427.63,1351.822,1426.383,1350.319,1426.041z"/>
	<path style="fill:#CC774B;" d="M1307.891,1661.988c-16.108-6.798-27.234-24.768-26.988-42.312c0.113-8.121-12.503-8.125-12.616,0
		c-0.331,23.704,14.631,45.354,36.251,54.478c3.141,1.325,6.941-1.426,7.759-4.406
		C1313.298,1666.103,1311.043,1663.318,1307.891,1661.988z"/>
	<path style="fill:#CC774B;" d="M1312.441,1621.425c-1.528-2.931-5.863-4.048-8.631-2.263c-2.986,1.925-3.897,5.496-2.263,8.631
		l11.588,22.236c1.527,2.931,5.863,4.048,8.63,2.263c2.986-1.925,3.897-5.496,2.263-8.63
		C1320.166,1636.249,1316.303,1628.837,1312.441,1621.425z"/>
	<path style="fill:#CC774B;" d="M1236.802,1625.615c-1.632,0.073-3.323,0.609-4.461,1.848c-1.21,1.317-1.624,2.701-1.848,4.461
		l-3.086,24.28c-0.189,1.485,0.841,3.454,1.847,4.461c1.094,1.094,2.889,1.918,4.461,1.847c1.631-0.073,3.323-0.609,4.46-1.847
		c1.21-1.318,1.625-2.702,1.848-4.461l3.086-24.28c0.189-1.485-0.841-3.454-1.847-4.461
		C1240.168,1626.368,1238.374,1625.544,1236.802,1625.615z"/>
	<path style="fill:#CC774B;" d="M1252.644,1411.376c-3.358-0.765-6.792,1.009-7.759,4.406c-1.62,5.686-3.24,11.372-4.859,17.058
		c-0.903,3.172,1.104,7.007,4.406,7.76c3.359,0.765,6.792-1.009,7.76-4.406l4.859-17.058
		C1257.954,1415.964,1255.946,1412.128,1252.644,1411.376z"/>
	<path style="fill:#CC774B;" d="M1300.42,772.837c-16.316-42.45-20.551-88.662-11.643-133.3c1.581-7.929-10.576-11.322-12.167-3.354
		c-9.337,46.794-5.49,95.431,11.645,140.008C1291.138,783.692,1303.34,780.434,1300.42,772.837z"/>
	<path style="fill:#CC774B;" d="M1387.192,718.372c-3.431-7.352-14.31-0.952-10.894,6.368
		c41.741,89.442,31.959,191.236,22.194,286.453c-0.828,8.069,11.795,8.011,12.616,0
		C1421.147,913.318,1430.045,810.195,1387.192,718.372z"/>
	<path style="fill:#CC774B;" d="M1360.011,702.12c2.171-7.836-9.997-11.18-12.165-3.354
		c-19.663,70.975,21.902,137.706,24.873,207.802c0.342,8.089,12.96,8.132,12.616,0
		C1382.434,838.124,1340.905,771.085,1360.011,702.12z"/>
	<path style="fill:#CC774B;" d="M1314.667,721.8c3.196,0.728,6.992-0.961,7.76-4.406c2.072-9.3,3.202-18.839,3.298-28.367
		c0.034-3.3-2.924-6.459-6.308-6.308c-3.446,0.154-6.273,2.771-6.308,6.308c-0.044,4.401-0.301,8.796-0.796,13.17
		c-0.057,0.514-0.12,1.029-0.184,1.542c-0.013,0.104-0.027,0.208-0.04,0.312c-0.011,0.077-0.013,0.093-0.045,0.321
		c-0.159,1.023-0.308,2.047-0.481,3.068c-0.375,2.212-0.813,4.411-1.3,6.602C1309.545,717.253,1311.232,721.018,1314.667,721.8z"/>
	<path style="fill:#CC774B;" d="M1545.993,1022.061c-50.889,3.221-57.622-61.414-60.669-97.871
		c-3.894-46.59-3.833-93.391-0.195-139.995c0.632-8.096-11.988-8.055-12.616,0c-4.322,55.348-4.107,111.573,2.898,166.707
		c4.841,38.106,24.001,86.722,70.583,83.774C1554.056,1034.167,1554.114,1021.547,1545.993,1022.061z"/>
	<path style="fill:#CC774B;" d="M1548.235,972.475c-0.194,0.246-8.548-12.585-9.512-14.378c-3.174-5.899-5.799-12.048-7.936-18.395
		c-4.103-12.183-6.545-24.89-7.77-37.671c-2.511-26.212-0.671-52.609,1.476-78.777c0.664-8.092-11.956-8.048-12.616,0
		c-2.691,32.799-4.846,66.146,1.298,98.705c2.862,15.162,7.778,30.027,15.239,43.567c4.366,7.923,18.144,29.296,28.743,15.87
		C1562.134,975.091,1553.265,966.104,1548.235,972.475z"/>
	<path style="fill:#CC774B;" d="M1562.886,910.263c-7.984-16.536-10.894-35.654-8.025-53.809c0.53-3.361-0.862-6.786-4.406-7.76
		c-2.999-0.824-7.225,1.021-7.76,4.406c-3.438,21.765-0.291,43.672,9.297,63.531c1.481,3.068,5.856,3.886,8.631,2.263
		C1563.757,917.061,1564.373,913.343,1562.886,910.263z"/>
	<path style="fill:#CC774B;" d="M1529.588,1161.662c-23.576,43.999-48.668,87.537-69.69,132.835
		c-19.415,41.836-33.922,86.126-32.534,132.741c0.242,8.101,12.859,8.135,12.617,0c-1.417-47.513,14.365-92.342,34.715-134.622
		c20.35-42.279,43.631-83.238,65.786-124.586C1544.315,1160.875,1533.428,1154.495,1529.588,1161.662z"/>
	<path style="fill:#CC774B;" d="M1460.719,1230.419c19.011-37.51,33.549-77.134,43.152-118.078
		c1.852-7.898-10.309-11.268-12.166-3.354c-9.358,39.9-23.352,78.505-41.88,115.064
		C1446.162,1231.277,1457.043,1237.67,1460.719,1230.419z"/>
	<path style="fill:#CC774B;" d="M1467.339,1117.228c5.86-23.717,9.019-48.074,9.39-72.501c0.122-8.121-12.493-8.124-12.617,0
		c-0.354,23.349-3.338,46.477-8.939,69.147C1453.226,1121.756,1465.39,1125.119,1467.339,1117.228z"/>
	<path style="fill:#CC774B;" d="M1522.305,1287.454c2.863-7.608-9.328-10.895-12.165-3.354
		c-17.474,46.444-25.724,95.964-24.364,145.566c0.223,8.103,12.84,8.135,12.617,0
		C1497.06,1381.078,1505.191,1332.945,1522.305,1287.454z"/>
	<path style="fill:#CC774B;" d="M1516.598,1374.627c-3.417,0.153-6.308,2.772-6.308,6.308v19.491c0,3.3,2.902,6.46,6.308,6.308
		c3.418-0.154,6.308-2.772,6.308-6.308v-19.491C1522.907,1377.636,1520.005,1374.475,1516.598,1374.627z"/>
	<path style="fill:#CC774B;" d="M1473.396,1616.625c-3.049-1.612-6.821-0.763-8.63,2.262c-5.692,9.516-7.411,20.853-5.19,31.671
		c0.665,3.238,4.667,5.407,7.76,4.406c3.429-1.11,5.119-4.292,4.406-7.76c-0.121-0.586-0.218-1.175-0.327-1.764
		c-0.02-0.184-0.042-0.367-0.06-0.551c-0.1-1.043-0.156-2.089-0.168-3.137c-0.012-1.048,0.021-2.096,0.097-3.141
		c0.032-0.439,0.036-1.055,0.149-1.531c0.031-0.193,0.062-0.386,0.097-0.579c0.376-2.138,0.935-4.243,1.675-6.284
		c0.127-0.352,0.678-2.272,0.192-0.579c0.12-0.418,0.372-0.836,0.557-1.225c0.516-1.082,1.091-2.132,1.706-3.16
		C1477.355,1622.421,1476.388,1618.205,1473.396,1616.625z"/>
	<path style="fill:#CC774B;" d="M1424.524,1638.472c-2.977-1.572-6.91-0.813-8.63,2.263c-3.33,5.952-4.257,12.948-2.655,19.572
		c0.777,3.209,4.588,5.432,7.76,4.406c3.336-1.079,5.238-4.321,4.406-7.759c-0.08-0.331-0.124-0.669-0.188-1.002
		c-0.129-1.297-0.104-2.597,0.006-3.895c0.241-1.353,0.577-2.682,1.076-3.964c0.163-0.33,0.309-0.668,0.489-0.99
		c0.809-1.446,1.079-3.252,0.636-4.861C1427.02,1640.779,1425.889,1639.193,1424.524,1638.472z"/>
	<path style="fill:#D2845B;" d="M988.306,166.227c-2.302,70.123-5.106,140.629-2.857,210.775c0.26,8.099,12.877,8.135,12.616,0
		c-2.249-70.147,0.554-140.653,2.857-210.775C1001.189,158.106,988.573,158.116,988.306,166.227L988.306,166.227z"/>
</g>
</svg>
